<svg width="69" height="62" viewBox="0 0 69 62" fill="none" xmlns="http://www.w3.org/2000/svg">
<ellipse cx="34.3027" cy="31.1818" rx="33.8872" ry="30.7273" fill="#52C3FF"/>
<path fill-rule="evenodd" clip-rule="evenodd" d="M29.6061 18.6989H40.0462C44.3943 18.6989 46.9984 21.1349 47.0102 25.2021V37.1615C47.0102 41.2288 44.4179 43.6648 40.058 43.6648H36.193C35.6973 43.6137 35.3222 43.2219 35.3222 42.7554C35.3222 42.289 35.6973 41.8972 36.193 41.8461H40.0462C43.3691 41.8461 45.0424 40.2699 45.0424 37.1615V25.2021C45.0424 22.0938 43.3691 20.5176 40.0462 20.5176H29.6061C26.2831 20.5176 24.5981 22.0938 24.5981 25.2021V37.1615C24.5981 40.2699 26.2831 41.8461 29.6061 41.8461C30.1017 41.8972 30.4769 42.289 30.4769 42.7554C30.4769 43.2219 30.1017 43.6137 29.6061 43.6648C25.258 43.6648 22.6538 41.2288 22.6538 37.1615V25.2021C22.6538 21.1238 25.258 18.6989 29.6061 18.6989ZM29.9478 26.8114H33.6596C34.1552 26.7603 34.5304 26.3685 34.5304 25.9021C34.5304 25.4356 34.1552 25.0438 33.6596 24.9927H29.9478C29.4521 25.0438 29.0769 25.4356 29.0769 25.9021C29.0769 26.3685 29.4521 26.7603 29.9478 26.8114ZM39.6927 32.0912H29.9478H29.936C29.4403 32.0401 29.0652 31.6483 29.0652 31.1818C29.0652 30.7154 29.4403 30.3236 29.936 30.2725H39.6927C40.0656 30.234 40.4291 30.3984 40.6284 30.6957C40.8277 30.993 40.8277 31.3707 40.6284 31.668C40.4291 31.9652 40.0656 32.1296 39.6927 32.0912ZM39.6927 37.371H29.9478H29.936C29.4023 37.371 28.9697 36.9663 28.9697 36.4671C28.9697 35.9679 29.4023 35.5633 29.936 35.5633H39.6927C40.2263 35.5633 40.6589 35.9679 40.6589 36.4671C40.6589 36.9663 40.2263 37.371 39.6927 37.371Z" fill="white"/>
</svg>
