<svg width="64" height="64" viewBox="0 0 64 64" fill="none" xmlns="http://www.w3.org/2000/svg">
<circle cx="32" cy="32" r="32" fill="#FFDFD6"/>
<path d="M39.1513 44.8945C38.9914 44.8976 38.8334 44.8572 38.6937 44.7773L32.0126 41.2605L26.1322 44.4256C25.1619 44.9546 23.9567 44.5831 23.4323 43.5933C23.2283 43.1938 23.156 42.7372 23.2264 42.2921L24.3704 35.5399L19.5884 30.6985C19.2118 30.3155 19 29.7944 19 29.2508C19 28.7071 19.2118 28.186 19.5884 27.803C19.8948 27.4818 20.2977 27.2754 20.7324 27.2169L27.2877 26.2205L30.205 20.1482C30.5381 19.4458 31.2333 19 31.9954 19C32.7575 19 33.4527 19.4458 33.7858 20.1482L36.7145 26.2439L43.2927 27.2521C43.8213 27.33 44.2971 27.6222 44.6133 28.063C44.9296 28.5039 45.0597 29.0565 44.9745 29.5966C44.9124 30.0404 44.7117 30.4517 44.4025 30.7688L39.6433 35.5516L40.3068 39.1856C40.3966 39.7387 40.0338 40.2624 39.4945 40.3579C38.9645 40.4581 38.4544 40.1027 38.3505 39.5607L37.6755 35.9268C37.5629 35.258 37.7765 34.5751 38.2476 34.098L43.0182 29.2801L36.44 28.2602C35.7783 28.1561 35.2137 27.7145 34.9413 27.088L32.0126 21.0157L29.0495 27.1817C28.7771 27.8083 28.2125 28.2499 27.5508 28.354L20.9955 29.3504L25.7318 34.1566C26.2008 34.6253 26.4147 35.3004 26.3038 35.9619L25.1598 42.7141L31.0401 39.5607C31.6247 39.2334 32.3317 39.2334 32.9164 39.5607L39.5861 43.0775C39.9903 43.2953 40.198 43.7671 40.0898 44.2218C39.9815 44.6765 39.5852 44.9973 39.1285 45L39.1513 44.8945Z" fill="#161616"/>
</svg>
