<svg width="69" height="62" viewBox="0 0 69 62" fill="none" xmlns="http://www.w3.org/2000/svg">
<ellipse cx="34.3027" cy="30.7273" rx="33.8872" ry="30.7273" fill="#FC77A0"/>
<path d="M41.8754 43.1089C41.706 43.1119 41.5388 43.0731 41.3908 42.9964L34.3156 39.6195L28.0885 42.6587C27.0609 43.1667 25.7847 42.8099 25.2294 41.8595C25.0133 41.4758 24.9368 41.0375 25.0113 40.61L26.2228 34.1264L21.1587 29.4775C20.7599 29.1098 20.5356 28.6094 20.5356 28.0874C20.5356 27.5654 20.7599 27.065 21.1587 26.6972C21.4833 26.3888 21.9099 26.1906 22.3702 26.1344L29.3121 25.1776L32.4014 19.3469C32.7542 18.6724 33.4904 18.2443 34.2975 18.2443C35.1045 18.2443 35.8407 18.6724 36.1935 19.3469L39.2949 25.2001L46.261 26.1682C46.8207 26.243 47.3246 26.5236 47.6595 26.9469C47.9944 27.3702 48.1322 27.9008 48.0419 28.4194C47.9762 28.8456 47.7637 29.2405 47.4362 29.5451L42.3963 34.1377L43.099 37.6271C43.1941 38.1582 42.8099 38.661 42.2388 38.7527C41.6775 38.849 41.1373 38.5077 41.0273 37.9873L40.3126 34.4979C40.1933 33.8557 40.4195 33.1999 40.9183 32.7419L45.9703 28.1155L39.0041 27.1362C38.3035 27.0363 37.7056 26.6122 37.4171 26.0106L34.3156 20.1798L31.1778 26.1007C30.8893 26.7022 30.2914 27.1263 29.5908 27.2263L22.6489 28.1831L27.6645 32.7982C28.1611 33.2482 28.3876 33.8964 28.2702 34.5316L27.0587 41.0153L33.2858 37.9873C33.9049 37.673 34.6536 37.673 35.2727 37.9873L42.3358 41.3642C42.7639 41.5734 42.9838 42.0264 42.8692 42.463C42.7546 42.8996 42.3348 43.2077 41.8512 43.2102L41.8754 43.1089Z" fill="white"/>
</svg>
