<svg width="64" height="65" viewBox="0 0 64 65" fill="none" xmlns="http://www.w3.org/2000/svg">
<circle cx="32" cy="32.6364" r="32" fill="#FFDFD6"/>
<path d="M44.6822 43.8249L40.2136 39.4559L40.1089 39.2967C39.9141 39.1028 39.6479 38.9936 39.3699 38.9936C39.092 38.9936 38.8257 39.1028 38.631 39.2967C34.8333 42.7807 28.9816 42.9701 24.9566 39.7392C20.9316 36.5083 19.9824 30.8597 22.7384 26.5396C25.4944 22.2194 31.1005 20.5683 35.8387 22.6811C40.5769 24.794 42.977 30.0153 41.4471 34.8822C41.337 35.2338 41.427 35.6162 41.6834 35.8853C41.9397 36.1544 42.3234 36.2693 42.69 36.1868C43.0565 36.1043 43.3502 35.8368 43.4603 35.4852C45.2891 29.7096 42.5271 23.4942 36.961 20.8597C31.3948 18.2253 24.6951 19.9624 21.1958 24.9474C17.6965 29.9324 18.4477 36.6692 22.9636 40.7997C27.4795 44.9303 34.4047 45.215 39.2594 41.4697L43.2159 45.338C43.6246 45.7358 44.2852 45.7358 44.6938 45.338C45.1021 44.9346 45.1021 44.2851 44.6938 43.8817L44.6822 43.8249Z" fill="#161616"/>
</svg>
