<svg width="69" height="62" viewBox="0 0 69 62" fill="none" xmlns="http://www.w3.org/2000/svg">
<ellipse cx="34.3027" cy="30.9546" rx="33.8872" ry="30.7273" fill="#FFCB57"/>
<path fill-rule="evenodd" clip-rule="evenodd" d="M30.5707 24.5564C29.4236 25.126 28.0165 25.1178 26.8781 24.5349L26.828 24.4911C26.3158 24.2125 26.1587 23.6234 26.4771 23.1753C26.7955 22.7272 27.4688 22.5898 27.981 22.8683C28.2097 22.9851 28.4684 23.0492 28.733 23.0547C29.1386 23.0696 29.5343 22.9427 29.8329 22.702C30.1315 22.4614 30.3084 22.1268 30.3247 21.7719C30.317 19.9889 31.9346 18.5251 33.9718 18.4716H35.6889C37.7654 18.4716 39.4488 19.9443 39.4488 21.7609C39.4454 21.9922 39.5148 22.2197 39.6493 22.4188C39.8489 22.727 40.1811 22.9525 40.5719 23.0452C40.9627 23.1378 41.3796 23.09 41.7298 22.9122C43.4941 22.0719 45.7018 22.5934 46.743 24.0963C47.0308 24.555 46.8538 25.1306 46.3419 25.4011C45.8218 25.6609 45.1597 25.51 44.8505 25.0612C44.4257 24.4283 43.4974 24.2131 42.77 24.5788C41.6191 25.1301 40.2229 25.1167 39.0861 24.5433C37.9494 23.9699 37.2366 22.9195 37.2054 21.7719C37.2189 21.4125 37.0652 21.0637 36.7793 20.8053C36.4934 20.5469 36.0999 20.4012 35.6889 20.4014H33.9718C33.5597 20.4012 33.165 20.5467 32.8771 20.8047C32.5893 21.0627 32.4327 21.4115 32.4428 21.7719C32.4312 22.9258 31.7178 23.9868 30.5707 24.5564ZM32.4428 40.1811C32.4497 40.9156 33.1322 41.5078 33.9718 41.5078L33.9593 41.5297C34.3488 41.5297 34.7088 41.7115 34.9036 42.0067C35.0984 42.3018 35.0984 42.6654 34.9036 42.9606C34.7088 43.2557 34.3488 43.4375 33.9593 43.4375C31.8828 43.4375 30.1994 41.9648 30.1994 40.1482C30.2028 39.917 30.1334 39.6894 29.9989 39.4903C29.5783 38.8535 28.649 38.6331 27.9184 38.997C26.154 39.8372 23.9463 39.3157 22.9051 37.8128L22.0529 36.508C21.0924 34.9645 21.6885 33.0331 23.4065 32.1223C23.6342 32.0051 23.824 31.839 23.9579 31.6398C24.2093 31.3333 24.2996 30.9477 24.2063 30.5794C24.113 30.2112 23.845 29.895 23.4691 29.7101C21.7512 28.7993 21.1551 26.8679 22.1156 25.3244C22.2763 25.113 22.5267 24.9664 22.8113 24.917C23.0959 24.8676 23.3913 24.9195 23.6321 25.0612C24.1077 25.3441 24.2456 25.9039 23.9454 26.3331C23.5306 26.969 23.783 27.7786 24.5094 28.1422C25.0551 28.4348 25.5044 28.8467 25.8128 29.3373C26.7733 30.8808 26.1772 32.8122 24.4592 33.7231C23.7328 34.0867 23.4804 34.8963 23.8953 35.5322L24.76 36.837C24.9568 37.1479 25.29 37.3751 25.6827 37.4662C26.0754 37.5573 26.4935 37.5042 26.8405 37.3194C27.4 37.0355 28.0361 36.8879 28.6829 36.8918C30.7594 36.8918 32.4428 38.3645 32.4428 40.1811ZM46.2417 32.1113C45.8916 31.9348 45.6364 31.6434 45.5329 31.3017C45.4294 30.96 45.486 30.5963 45.6902 30.2912C45.8242 30.092 46.014 29.926 46.2417 29.8088C46.756 29.5385 46.9241 28.9554 46.6177 28.504C46.3132 28.0585 45.6633 27.8995 45.1388 28.1422C43.4208 29.0531 42.8247 30.9844 43.7852 32.528C44.0903 33.0672 44.564 33.5196 45.1513 33.8327C45.5006 34.0071 45.7555 34.2966 45.8591 34.6365C45.9627 34.9764 45.9064 35.3385 45.7028 35.6418L44.8505 36.9466C44.6453 37.252 44.3129 37.4759 43.9231 37.5716C43.5325 37.6627 43.1164 37.6113 42.77 37.429C41.6172 36.8769 40.2184 36.8915 39.0809 37.4675C37.9434 38.0435 37.2323 39.0973 37.2054 40.2469C37.2654 40.7372 37.7383 41.109 38.302 41.109C38.8657 41.109 39.3386 40.7372 39.3986 40.2469C39.3883 39.7679 39.6764 39.3218 40.1508 39.0823C40.6251 38.8429 41.2108 38.848 41.6796 39.0956C43.444 39.9359 45.6517 39.4144 46.6929 37.9115L47.5451 36.6067C48.5975 35.0496 48.0152 33.0413 46.2417 32.1113ZM34.8241 26.8374C32.9169 26.8374 31.1978 27.8431 30.4692 29.3849C29.7405 30.9268 30.146 32.7009 31.4963 33.879C32.8467 35.0572 34.8756 35.4072 36.6361 34.7657C38.3966 34.1241 39.5416 32.6175 39.5365 30.9491C39.5365 29.8567 39.0396 28.8092 38.1555 28.0378C37.2714 27.2664 36.0727 26.8345 34.8241 26.8374ZM34.8241 33.1529C33.4397 33.1529 32.3175 32.1711 32.3175 30.96C32.3175 29.7489 33.4397 28.7672 34.8241 28.7672C36.2084 28.7672 37.3307 29.7489 37.3307 30.96C37.3307 32.1711 36.2084 33.1529 34.8241 33.1529Z" fill="#161616"/>
</svg>
