<svg width="60" height="60" viewBox="0 0 60 60" fill="none" xmlns="http://www.w3.org/2000/svg">
<circle cx="30" cy="30" r="29.5" stroke="#EAEAEA"/>
<path d="M37.1513 42.8945C36.9914 42.8976 36.8334 42.8572 36.6937 42.7773L30.0126 39.2605L24.1322 42.4256C23.1619 42.9546 21.9567 42.5831 21.4323 41.5933C21.2283 41.1938 21.156 40.7372 21.2264 40.2921L22.3704 33.5399L17.5884 28.6985C17.2118 28.3155 17 27.7944 17 27.2508C17 26.7071 17.2118 26.186 17.5884 25.803C17.8948 25.4818 18.2977 25.2754 18.7324 25.2169L25.2877 24.2205L28.205 18.1482C28.5381 17.4458 29.2333 17 29.9954 17C30.7575 17 31.4527 17.4458 31.7858 18.1482L34.7145 24.2439L41.2927 25.2521C41.8213 25.33 42.2971 25.6222 42.6133 26.063C42.9296 26.5039 43.0597 27.0565 42.9745 27.5966C42.9124 28.0404 42.7117 28.4517 42.4025 28.7688L37.6433 33.5516L38.3068 37.1856C38.3966 37.7387 38.0338 38.2624 37.4945 38.3579C36.9645 38.4581 36.4544 38.1027 36.3505 37.5607L35.6755 33.9268C35.5629 33.258 35.7765 32.5751 36.2476 32.098L41.0182 27.2801L34.44 26.2602C33.7783 26.1561 33.2137 25.7145 32.9413 25.088L30.0126 19.0157L27.0495 25.1817C26.7771 25.8083 26.2125 26.2499 25.5508 26.354L18.9955 27.3504L23.7318 32.1566C24.2008 32.6253 24.4147 33.3004 24.3038 33.9619L23.1598 40.7141L29.0401 37.5607C29.6247 37.2334 30.3317 37.2334 30.9164 37.5607L37.5861 41.0775C37.9903 41.2953 38.198 41.7671 38.0898 42.2218C37.9815 42.6765 37.5852 42.9973 37.1285 43L37.1513 42.8945Z" fill="#161616"/>
</svg>
