<svg width="336" height="270" viewBox="0 0 336 270" fill="none" xmlns="http://www.w3.org/2000/svg">
<path fill-rule="evenodd" clip-rule="evenodd" d="M303.794 126.264C303.746 127.811 303.62 129.856 303.716 132.559C303.731 133.236 303.793 133.952 303.8 134.716C303.811 135.48 303.822 136.29 303.833 137.148C303.868 138.864 304.005 140.773 303.967 142.903C303.728 140.301 303.253 141.76 303.032 139.697C303.052 140.125 303.07 140.557 303.068 140.997C303.041 142.002 302.993 143.031 302.929 144.063C302.862 145.094 302.794 146.129 302.688 147.142C302.527 148.149 302.369 149.141 302.216 150.095C301.934 151.793 301.624 153.347 301.25 154.665C302.747 143.725 302.589 132.76 300.718 122.185C295.687 93.7565 286.445 70.3894 273.012 52.2506C275.361 55.0054 277.591 57.876 279.674 60.8615C280.312 60.8345 278.93 57.9918 277.92 55.9189C276.853 53.8908 276.25 52.5649 278.851 55.4465C281.002 58.4515 280.344 58.5022 280.55 59.261L282.133 61.5215L283.608 63.8488C284.587 65.4053 285.61 66.9442 286.489 68.5599L285.864 72.4302C288.739 81.058 291.878 87.4381 295.195 94.6742C298.466 101.888 301.782 110.011 303.542 121.682C303.85 122.279 304.121 122.708 304.362 123.008C304.101 123.761 303.887 124.792 303.794 126.264M267.444 45.3128C265.101 42.6137 262.643 40.0566 260.083 37.6305C260.351 37.8257 260.612 38.0158 260.884 38.2136C261.682 38.8203 262.44 39.5057 263.227 40.2113C264.009 40.9228 264.793 41.6833 265.573 42.5106C266.31 43.3776 267.035 44.3182 267.745 45.3424C267.82 45.5122 267.678 45.4598 267.444 45.3128M185.83 6.60143C186.163 5.88906 186.33 5.18007 189.084 4.93839C194.184 5.67865 204.203 8.04308 202.656 8.73601C203.258 8.95319 203.869 9.15684 204.482 9.35627C198.53 8.09293 192.308 7.17775 185.83 6.60143M125.124 262.566C121.958 262.337 119.249 262.208 117.644 262.335C115.502 261.531 114.823 261.005 114.86 260.628C118.327 261.376 121.884 262.035 125.551 262.581C125.412 262.577 125.261 262.571 125.124 262.566M68.4275 32.2392C54.5277 41.9107 44.3839 53.8021 37.1461 67.207C39.4358 62.6167 42.0622 58.1076 45.134 53.8393C48.3067 49.4619 51.881 45.3086 55.8055 41.4552C63.6983 33.7839 73.0507 27.4757 83.0816 22.6961C77.2749 25.6952 72.4084 29.0483 68.4275 32.2392M309.269 140.672C309.205 140.071 309.144 139.493 309.084 138.933C308.949 137.815 308.793 136.774 308.624 135.756C307.937 132.011 306.968 128.575 305.654 122.887C305.871 122.263 305.986 121.227 306.036 119.975C306.095 118.298 306.052 116.245 306.022 114.305C306.007 112.363 305.881 110.552 305.98 109.339L305.814 111.76C305.276 110.366 304.711 109.375 304.177 107.99C303.906 107.299 303.655 106.506 303.395 105.517C303.114 104.532 302.84 103.349 302.576 101.862C301.508 95.8783 304.373 104.766 303.88 100.564C301.864 91.0768 299.668 85.775 297.268 81.0183C296.66 79.8335 296.063 78.6665 295.448 77.4683C294.789 76.2911 294.112 75.0819 293.389 73.7923C292.013 71.1888 290.303 68.3258 288.331 64.6667C282.199 50.9872 273.779 41.6461 264.153 33.9208C259.316 30.0395 254.043 26.6433 248.289 23.2614C242.525 19.877 236.139 16.7047 228.821 13.4741C238.812 18.628 248.922 25.2574 260.322 36.1643L257.713 34.1895C256.847 33.532 255.913 32.9574 255.019 32.3414L252.319 30.5288L249.743 28.9992C241.541 23.0053 232.429 18.1675 222.418 14.4916C222.723 14.5837 223.033 14.6817 223.336 14.7662C224.606 15.1574 225.866 15.449 227.008 15.8724C229.305 16.6844 231.429 17.3022 233.077 18.0568C232.033 17.2261 230.72 16.474 229.321 15.6248C227.919 14.7831 226.405 13.8975 224.815 13.1395C223.233 12.3671 221.652 11.506 220.087 10.8258C218.525 10.1345 217.031 9.46356 215.698 8.83485C210.329 6.5245 207.461 4.85808 213.559 4.85386C211.738 4.31388 210.108 3.78657 208.605 3.44348C207.102 3.09955 205.747 2.81393 204.502 2.5714C202.018 2.0424 199.951 1.92663 198.042 1.74917C197.084 1.68073 196.165 1.60552 195.238 1.58186C194.313 1.57341 193.383 1.56665 192.409 1.5582C190.465 1.55059 188.355 1.47961 185.761 1.5151C184.466 1.34102 182.915 1.19652 181.3 1.05793C179.684 0.980187 178.006 0.899063 176.452 0.823009C173.342 0.612594 170.738 0.532315 170.125 -6.10352e-05C165.338 0.466402 163.175 0.934555 160.367 1.05793C158.962 1.11286 157.402 1.13145 155.286 1.16779C153.173 1.20497 150.481 1.10018 146.855 1.20666C136.939 2.33817 127.755 5.00766 134.489 4.70006C143.567 3.36827 152.684 2.56126 161.869 2.20381C168.42 3.01674 165.273 3.97163 161.066 4.85217C160.012 5.06596 158.892 5.29243 157.829 5.50792C156.77 5.75129 155.772 5.98537 154.967 6.20085C154.749 6.25916 154.55 6.31578 154.364 6.37071C153.028 6.45944 151.684 6.55915 150.331 6.6707C129.264 8.41233 111.447 12.2632 96.42 17.8413C99.5667 16.3211 102.767 14.8879 106.019 13.5434C99.8664 15.4067 93.7886 17.5422 87.8791 20.1162C89.1713 18.7337 91.9543 16.5442 92.61 15.3712C93.2759 14.2456 91.7 13.9085 84.2619 16.7698C78.6016 19.9083 73.3361 23.509 68.3585 27.3294C63.3927 31.1727 58.7073 35.277 54.3871 39.7676C45.7098 48.7157 38.2228 58.8191 31.4766 70.4308L30.0186 73.4746L28.6936 76.5818C27.7677 78.6412 27.0631 80.7851 26.2406 82.8926C24.7995 87.171 23.424 91.5002 22.4054 95.9257C20.2007 104.751 19.023 113.828 18.2805 122.959C16.8436 141.229 18.065 160.298 23.5334 178.689C23.429 175.417 24.089 177.427 24.5503 178.755C25.0857 180.073 25.2616 180.748 24.4131 174.891C24.9535 176.239 25.4476 177.525 25.9367 178.845C26.1051 179.248 26.2692 179.667 26.4351 180.081C27.7298 184.787 29.2661 189.353 31.0532 193.763C29.1592 191.121 28.5581 190.569 28.5253 191.42C28.4823 192.325 29.3418 194.676 30.2981 197.391C30.746 198.763 31.4287 200.135 31.9632 201.5C32.5053 202.863 33.0222 204.161 33.4549 205.247C34.3379 207.405 34.6528 208.841 33.598 208.445C38.3188 216.32 40.3972 220.372 42.6457 224.7C43.8242 226.819 44.9623 229.081 46.9035 231.575C48.7496 234.154 51.3348 237.024 55.1953 240.432C57.8335 242.053 58.6559 242.211 58.3571 241.489C58.2081 241.127 57.7771 240.545 57.1508 239.81C56.5321 239.066 55.6751 238.218 54.8131 237.157C53.047 235.082 50.8027 232.689 48.9634 230.256C48.0315 229.054 47.0685 227.967 46.3446 226.89C45.6156 225.825 44.9775 224.894 44.4892 224.182C45.1256 224.873 45.8386 225.749 46.5929 226.719C47.3295 227.703 48.2369 228.666 49.0796 229.692C48.4701 228.822 47.88 227.952 47.3278 227.092C46.8185 226.193 46.3412 225.308 45.9009 224.451C45.0364 222.727 44.2535 221.175 43.8394 219.724C43.3259 218.103 43.0742 216.811 43.1205 215.961C49.9138 225.574 58.3251 234.022 68.3981 241.069C67.8004 242.351 67.5454 243.79 71.6407 246.3C72.2687 247.255 73.9759 248.624 76.3658 249.925C77.5477 250.599 78.8676 251.314 80.2599 252.034C81.6935 252.668 83.1903 253.33 84.6878 253.992C85.4362 254.319 86.1846 254.646 86.9253 254.971C87.6804 255.256 88.428 255.538 89.1586 255.813C90.6175 256.37 92.0048 256.917 93.2506 257.445C95.7643 258.432 97.7501 259.251 98.5809 260.056C108.846 262.799 117.948 265.178 125.93 266.684C129.925 267.314 133.606 267.933 136.965 267.927C140.32 268.001 143.33 267.784 145.955 266.903C148.504 267.451 151.066 268.132 153.652 268.57L161.459 269.967C164.614 270.063 167.516 269.933 170.225 269.794C170.902 269.752 171.568 269.719 172.221 269.657C172.873 269.573 173.515 269.491 174.148 269.41C175.411 269.239 176.635 269.054 177.828 268.861C179.018 268.655 180.179 268.454 181.323 268.255C182.46 268.016 183.571 267.728 184.671 267.462C186.869 266.907 189.026 266.398 191.194 265.809C193.058 264.793 190.613 264.925 188.97 264.642C188.15 264.524 187.539 264.363 187.77 264.035C187.885 263.871 188.211 263.665 188.825 263.403C189.44 263.149 190.342 262.827 191.593 262.352C193.449 261.825 195.956 261.145 198.468 260.58C200.956 259.904 203.443 259.312 205.323 259.151C206.487 259.573 201.787 261.311 200.746 261.802C210.558 259.102 218.826 256.715 226.64 254.365C234.461 252.042 241.708 249.413 248.925 245.72C251.135 244.182 253.495 242.64 255.78 240.845C256.943 239.977 258.122 239.095 259.312 238.207C260.459 237.261 261.616 236.306 262.78 235.346C267.468 231.546 271.872 227.21 275.913 222.926C283.87 214.215 289.544 205.012 291.671 199.027L288.29 204.29C287.119 206.011 285.865 207.675 284.656 209.364C285.925 207.473 286.832 206.017 287.469 204.889C288.086 203.746 288.39 202.902 288.567 202.304C288.906 201.097 288.603 200.78 288.359 200.418C287.811 199.653 287.822 198.935 292.645 190.212C294.436 186.934 295.683 184.916 296.418 183.668C297.198 182.44 297.653 182.065 297.954 182.106C298.56 182.182 298.544 183.938 299.352 183.726C299.764 182.736 300.191 181.657 300.627 180.515C301.043 179.366 301.394 178.127 301.787 176.865C302.157 175.597 302.59 174.311 302.914 172.98C303.232 171.649 303.553 170.306 303.871 168.978C304.032 168.315 304.191 167.655 304.35 167.002C304.476 166.341 304.601 165.687 304.725 165.043C304.988 163.759 305.245 162.512 305.488 161.329C305.967 158.962 306.315 156.83 306.803 155.179C306.21 160.048 306.842 158.239 307.546 155.74C307.925 154.497 308.223 153.069 308.403 152.242C308.596 151.416 308.692 151.196 308.591 152.359C308.868 150.349 309.125 148.563 309.232 146.945C309.304 145.323 309.329 143.878 309.317 142.561C309.309 141.901 309.301 141.274 309.269 140.672" fill="#FFDFD6"/>
<mask id="mask0_5_4694" style="mask-type:alpha" maskUnits="userSpaceOnUse" x="17" y="0" width="293" height="270">
<path fill-rule="evenodd" clip-rule="evenodd" d="M303.794 126.264C303.746 127.811 303.62 129.856 303.716 132.559C303.731 133.236 303.793 133.952 303.8 134.716C303.811 135.48 303.822 136.29 303.833 137.148C303.868 138.864 304.005 140.773 303.967 142.903C303.728 140.301 303.253 141.76 303.032 139.697C303.052 140.125 303.07 140.557 303.068 140.997C303.041 142.002 302.993 143.031 302.929 144.063C302.862 145.094 302.794 146.129 302.688 147.142C302.527 148.149 302.369 149.141 302.216 150.095C301.934 151.793 301.624 153.347 301.25 154.665C302.747 143.725 302.589 132.76 300.718 122.185C295.687 93.7565 286.445 70.3894 273.012 52.2506C275.361 55.0054 277.591 57.876 279.674 60.8615C280.312 60.8345 278.93 57.9918 277.92 55.9189C276.853 53.8908 276.25 52.5649 278.851 55.4465C281.002 58.4515 280.344 58.5022 280.55 59.261L282.133 61.5215L283.608 63.8488C284.587 65.4053 285.61 66.9442 286.489 68.5599L285.864 72.4302C288.739 81.058 291.878 87.4381 295.195 94.6742C298.466 101.888 301.782 110.011 303.542 121.682C303.85 122.279 304.121 122.708 304.362 123.008C304.101 123.761 303.887 124.792 303.794 126.264M267.444 45.3128C265.101 42.6137 262.643 40.0566 260.083 37.6305C260.351 37.8257 260.612 38.0158 260.884 38.2136C261.682 38.8203 262.44 39.5057 263.227 40.2113C264.009 40.9228 264.793 41.6833 265.573 42.5106C266.31 43.3776 267.035 44.3182 267.745 45.3424C267.82 45.5122 267.678 45.4598 267.444 45.3128M185.83 6.60143C186.163 5.88906 186.33 5.18007 189.084 4.93839C194.184 5.67865 204.203 8.04308 202.656 8.73601C203.258 8.95319 203.869 9.15684 204.482 9.35627C198.53 8.09293 192.308 7.17775 185.83 6.60143M125.124 262.566C121.958 262.337 119.249 262.208 117.644 262.335C115.502 261.531 114.823 261.005 114.86 260.628C118.327 261.376 121.884 262.035 125.551 262.581C125.412 262.577 125.261 262.571 125.124 262.566M68.4275 32.2392C54.5277 41.9107 44.3839 53.8021 37.1461 67.207C39.4358 62.6167 42.0622 58.1076 45.134 53.8393C48.3067 49.4619 51.881 45.3086 55.8055 41.4552C63.6983 33.7839 73.0507 27.4757 83.0816 22.6961C77.2749 25.6952 72.4084 29.0483 68.4275 32.2392M309.269 140.672C309.205 140.071 309.144 139.493 309.084 138.933C308.949 137.815 308.793 136.774 308.624 135.756C307.937 132.011 306.968 128.575 305.654 122.887C305.871 122.263 305.986 121.227 306.036 119.975C306.095 118.298 306.052 116.245 306.022 114.305C306.007 112.363 305.881 110.552 305.98 109.339L305.814 111.76C305.276 110.366 304.711 109.375 304.177 107.99C303.906 107.299 303.655 106.506 303.395 105.517C303.114 104.532 302.84 103.349 302.576 101.862C301.508 95.8783 304.373 104.766 303.88 100.564C301.864 91.0768 299.668 85.775 297.268 81.0183C296.66 79.8335 296.063 78.6665 295.448 77.4683C294.789 76.2911 294.112 75.0819 293.389 73.7923C292.013 71.1888 290.303 68.3258 288.331 64.6667C282.199 50.9872 273.779 41.6461 264.153 33.9208C259.316 30.0395 254.043 26.6433 248.289 23.2614C242.525 19.877 236.139 16.7047 228.821 13.4741C238.812 18.628 248.922 25.2574 260.322 36.1643L257.713 34.1895C256.847 33.532 255.913 32.9574 255.019 32.3414L252.319 30.5288L249.743 28.9992C241.541 23.0053 232.429 18.1675 222.418 14.4916C222.723 14.5837 223.033 14.6817 223.336 14.7662C224.606 15.1574 225.866 15.449 227.008 15.8724C229.305 16.6844 231.429 17.3022 233.077 18.0568C232.033 17.2261 230.72 16.474 229.321 15.6248C227.919 14.7831 226.405 13.8975 224.815 13.1395C223.233 12.3671 221.652 11.506 220.087 10.8258C218.525 10.1345 217.031 9.46356 215.698 8.83485C210.329 6.5245 207.461 4.85808 213.559 4.85386C211.738 4.31388 210.108 3.78657 208.605 3.44348C207.102 3.09955 205.747 2.81393 204.502 2.5714C202.018 2.0424 199.951 1.92663 198.042 1.74917C197.084 1.68073 196.165 1.60552 195.238 1.58186C194.313 1.57341 193.383 1.56665 192.409 1.5582C190.465 1.55059 188.355 1.47961 185.761 1.5151C184.466 1.34102 182.915 1.19652 181.3 1.05793C179.684 0.980187 178.006 0.899063 176.452 0.823009C173.342 0.612594 170.738 0.532315 170.125 -6.10352e-05C165.338 0.466402 163.175 0.934555 160.367 1.05793C158.962 1.11286 157.402 1.13145 155.286 1.16779C153.173 1.20497 150.481 1.10018 146.855 1.20666C136.939 2.33817 127.755 5.00766 134.489 4.70006C143.567 3.36827 152.684 2.56126 161.869 2.20381C168.42 3.01674 165.273 3.97163 161.066 4.85217C160.012 5.06596 158.892 5.29243 157.829 5.50792C156.77 5.75129 155.772 5.98537 154.967 6.20085C154.749 6.25916 154.55 6.31578 154.364 6.37071C153.028 6.45944 151.684 6.55915 150.331 6.6707C129.264 8.41233 111.447 12.2632 96.42 17.8413C99.5667 16.3211 102.767 14.8879 106.019 13.5434C99.8664 15.4067 93.7886 17.5422 87.8791 20.1162C89.1713 18.7337 91.9543 16.5442 92.61 15.3712C93.2759 14.2456 91.7 13.9085 84.2619 16.7698C78.6016 19.9083 73.3361 23.509 68.3585 27.3294C63.3927 31.1727 58.7073 35.277 54.3871 39.7676C45.7098 48.7157 38.2228 58.8191 31.4766 70.4308L30.0186 73.4746L28.6936 76.5818C27.7677 78.6412 27.0631 80.7851 26.2406 82.8926C24.7995 87.171 23.424 91.5002 22.4054 95.9257C20.2007 104.751 19.023 113.828 18.2805 122.959C16.8436 141.229 18.065 160.298 23.5334 178.689C23.429 175.417 24.089 177.427 24.5503 178.755C25.0857 180.073 25.2616 180.748 24.4131 174.891C24.9535 176.239 25.4476 177.525 25.9367 178.845C26.1051 179.248 26.2692 179.667 26.4351 180.081C27.7298 184.787 29.2661 189.353 31.0532 193.763C29.1592 191.121 28.5581 190.569 28.5253 191.42C28.4823 192.325 29.3418 194.676 30.2981 197.391C30.746 198.763 31.4287 200.135 31.9632 201.5C32.5053 202.863 33.0222 204.161 33.4549 205.247C34.3379 207.405 34.6528 208.841 33.598 208.445C38.3188 216.32 40.3972 220.372 42.6457 224.7C43.8242 226.819 44.9623 229.081 46.9035 231.575C48.7496 234.154 51.3348 237.024 55.1953 240.432C57.8335 242.053 58.6559 242.211 58.3571 241.489C58.2081 241.127 57.7771 240.545 57.1508 239.81C56.5321 239.066 55.6751 238.218 54.8131 237.157C53.047 235.082 50.8027 232.689 48.9634 230.256C48.0315 229.054 47.0685 227.967 46.3446 226.89C45.6156 225.825 44.9775 224.894 44.4892 224.182C45.1256 224.873 45.8386 225.749 46.5929 226.719C47.3295 227.703 48.2369 228.666 49.0796 229.692C48.4701 228.822 47.88 227.952 47.3278 227.092C46.8185 226.193 46.3412 225.308 45.9009 224.451C45.0364 222.727 44.2535 221.175 43.8394 219.724C43.3259 218.103 43.0742 216.811 43.1205 215.961C49.9138 225.574 58.3251 234.022 68.3981 241.069C67.8004 242.351 67.5454 243.79 71.6407 246.3C72.2687 247.255 73.9759 248.624 76.3658 249.925C77.5477 250.599 78.8676 251.314 80.2599 252.034C81.6935 252.668 83.1903 253.33 84.6878 253.992C85.4362 254.319 86.1846 254.646 86.9253 254.971C87.6804 255.256 88.428 255.538 89.1586 255.813C90.6175 256.37 92.0048 256.917 93.2506 257.445C95.7643 258.432 97.7501 259.251 98.5809 260.056C108.846 262.799 117.948 265.178 125.93 266.684C129.925 267.314 133.606 267.933 136.965 267.927C140.32 268.001 143.33 267.784 145.955 266.903C148.504 267.451 151.066 268.132 153.652 268.57L161.459 269.967C164.614 270.063 167.516 269.933 170.225 269.794C170.902 269.752 171.568 269.719 172.221 269.657C172.873 269.573 173.515 269.491 174.148 269.41C175.411 269.239 176.635 269.054 177.828 268.861C179.018 268.655 180.179 268.454 181.323 268.255C182.46 268.016 183.571 267.728 184.671 267.462C186.869 266.907 189.026 266.398 191.194 265.809C193.058 264.793 190.613 264.925 188.97 264.642C188.15 264.524 187.539 264.363 187.77 264.035C187.885 263.871 188.211 263.665 188.825 263.403C189.44 263.149 190.342 262.827 191.593 262.352C193.449 261.825 195.956 261.145 198.468 260.58C200.956 259.904 203.443 259.312 205.323 259.151C206.487 259.573 201.787 261.311 200.746 261.802C210.558 259.102 218.826 256.715 226.64 254.365C234.461 252.042 241.708 249.413 248.925 245.72C251.135 244.182 253.495 242.64 255.78 240.845C256.943 239.977 258.122 239.095 259.312 238.207C260.459 237.261 261.616 236.306 262.78 235.346C267.468 231.546 271.872 227.21 275.913 222.926C283.87 214.215 289.544 205.012 291.671 199.027L288.29 204.29C287.119 206.011 285.865 207.675 284.656 209.364C285.925 207.473 286.832 206.017 287.469 204.889C288.086 203.746 288.39 202.902 288.567 202.304C288.906 201.097 288.603 200.78 288.359 200.418C287.811 199.653 287.822 198.935 292.645 190.212C294.436 186.934 295.683 184.916 296.418 183.668C297.198 182.44 297.653 182.065 297.954 182.106C298.56 182.182 298.544 183.938 299.352 183.726C299.764 182.736 300.191 181.657 300.627 180.515C301.043 179.366 301.394 178.127 301.787 176.865C302.157 175.597 302.59 174.311 302.914 172.98C303.232 171.649 303.553 170.306 303.871 168.978C304.032 168.315 304.191 167.655 304.35 167.002C304.476 166.341 304.601 165.687 304.725 165.043C304.988 163.759 305.245 162.512 305.488 161.329C305.967 158.962 306.315 156.83 306.803 155.179C306.21 160.048 306.842 158.239 307.546 155.74C307.925 154.497 308.223 153.069 308.403 152.242C308.596 151.416 308.692 151.196 308.591 152.359C308.868 150.349 309.125 148.563 309.232 146.945C309.304 145.323 309.329 143.878 309.317 142.561C309.309 141.901 309.301 141.274 309.269 140.672" fill="white"/>
</mask>
<g mask="url(#mask0_5_4694)">
<rect x="-31.0376" y="-50.7216" width="397.952" height="391.252" rx="35.4311" fill="#FFDFD6"/>
</g>
<path fill-rule="evenodd" clip-rule="evenodd" d="M171.803 82.0136V82.0136C168.008 82.0136 164.904 78.904 164.904 75.1023C164.904 71.3015 168.008 68.1911 171.803 68.1911C175.597 68.1911 178.701 71.3015 178.701 75.1023C178.701 78.904 175.597 82.0136 171.803 82.0136" fill="white"/>
<path fill-rule="evenodd" clip-rule="evenodd" d="M193.879 82.0136V82.0136C190.084 82.0136 186.98 78.904 186.98 75.1023C186.98 71.3015 190.084 68.1911 193.879 68.1911C197.673 68.1911 200.778 71.3015 200.778 75.1023C200.778 78.904 197.673 82.0136 193.879 82.0136" fill="white"/>
<path fill-rule="evenodd" clip-rule="evenodd" d="M217.795 82.0136V82.0136C214.001 82.0136 210.896 78.904 210.896 75.1023C210.896 71.3015 214.001 68.1911 217.795 68.1911C221.59 68.1911 224.694 71.3015 224.694 75.1023C224.694 78.904 221.59 82.0136 217.795 82.0136" fill="white"/>
<path fill-rule="evenodd" clip-rule="evenodd" d="M121.21 215.631V215.631C117.415 215.631 114.311 212.522 114.311 208.72C114.311 204.919 117.415 201.809 121.21 201.809V201.809C125.004 201.809 128.109 204.919 128.109 208.72C128.109 212.522 125.004 215.631 121.21 215.631" fill="white"/>
<path fill-rule="evenodd" clip-rule="evenodd" d="M145.126 215.631V215.631C141.332 215.631 138.228 212.522 138.228 208.72C138.228 204.919 141.332 201.809 145.126 201.809C148.921 201.809 152.025 204.919 152.025 208.72C152.025 212.522 148.921 215.631 145.126 215.631" fill="white"/>
<path fill-rule="evenodd" clip-rule="evenodd" d="M167.203 215.631V215.631C163.409 215.631 160.304 212.522 160.304 208.72C160.304 204.919 163.409 201.809 167.203 201.809C170.998 201.809 174.102 204.919 174.102 208.72C174.102 212.522 170.998 215.631 167.203 215.631" fill="white"/>
<path fill-rule="evenodd" clip-rule="evenodd" d="M128.561 174.697H16.9355C7.82722 174.697 0.442871 167.319 0.442871 158.216V64.4366C0.442871 55.3342 7.82722 47.9562 16.9355 47.9562H128.561C137.669 47.9562 145.054 55.3342 145.054 64.4366V158.216C145.054 167.319 137.669 174.697 128.561 174.697" fill="white"/>
<path fill-rule="evenodd" clip-rule="evenodd" d="M319.818 242.472H205.985C197.486 242.472 190.596 235.587 190.596 227.094V131.109C190.596 122.617 197.486 115.732 205.985 115.732H319.818C328.317 115.732 335.207 122.617 335.207 131.109V227.094C335.207 235.587 328.317 242.472 319.818 242.472" fill="white"/>
<path fill-rule="evenodd" clip-rule="evenodd" d="M324.389 195.765C322.589 193.664 312.88 179.345 301.029 163.739C292.782 152.879 280.833 149.983 274.817 149.211C274.857 150.784 274.862 151.823 274.862 151.823C274.862 151.823 273.375 158.793 262.51 158.457C248.94 158.038 250.837 152.817 250.837 152.817C250.837 152.817 251.366 151.325 251.804 149.815C248.794 150.934 241.984 154.103 233.587 162.079C229.538 165.927 217.146 182.562 217.146 182.562C217.146 182.562 217.895 184.433 219.153 187.073H231.903C233.165 187.073 234.322 187.772 234.91 188.889L255.932 228.891H228.781L226.967 242.916H303.182L295.031 214.228C295.031 214.228 318.789 202.622 324.389 195.765Z" fill="#FC77A0"/>
<mask id="mask1_5_4694" style="mask-type:alpha" maskUnits="userSpaceOnUse" x="217" y="149" width="108" height="94">
<path fill-rule="evenodd" clip-rule="evenodd" d="M324.389 195.765C322.589 193.664 312.88 179.345 301.029 163.739C292.782 152.879 280.833 149.983 274.817 149.211C274.857 150.784 274.862 151.823 274.862 151.823C274.862 151.823 273.375 158.793 262.51 158.457C248.94 158.038 250.837 152.817 250.837 152.817C250.837 152.817 251.366 151.325 251.804 149.815C248.794 150.934 241.984 154.103 233.587 162.079C229.538 165.927 217.146 182.562 217.146 182.562C217.146 182.562 217.895 184.433 219.153 187.073H231.903C233.165 187.073 234.322 187.772 234.91 188.889L255.932 228.891H228.781L226.967 242.916H303.182L295.031 214.228C295.031 214.228 318.789 202.622 324.389 195.765Z" fill="white"/>
</mask>
<g mask="url(#mask1_5_4694)">
<rect x="-29.5576" y="-53.7426" width="397.066" height="400.134" rx="35.4311" fill="#FC77A0"/>
</g>
<path fill-rule="evenodd" clip-rule="evenodd" d="M198.616 146.027C198.616 146.027 198.395 149.134 197.951 154.46C197.507 159.786 197.065 160.674 198.173 162.005C199.282 163.337 203.715 169.107 209.035 176.209C214.356 183.309 216.35 185.086 216.35 185.086L217.66 183.73L226.81 205.131L233.419 219.484C233.419 219.484 223.866 223.753 216.35 220.815C205.672 216.64 198.838 195.96 194.848 189.08C190.857 182.2 187.533 175.542 187.533 175.542C187.533 175.542 180.661 171.325 176.227 165.556C171.794 159.786 171.351 158.233 171.572 156.901C171.794 155.569 172.527 155.783 172.527 155.783C172.527 155.783 169.338 152.269 170.381 150.181C171.07 148.8 172.68 149.644 172.68 149.644C172.68 149.644 171.684 146.575 173.294 145.654C174.641 144.884 175.976 146.115 175.976 146.115C175.976 146.115 174.879 144.386 176.796 143.542C178.713 142.698 186.247 148.646 188.317 150.488C190.387 152.33 191.69 153.865 191.69 153.865C191.69 153.865 194.199 144.021 198.616 146.027Z" fill="white"/>
<path fill-rule="evenodd" clip-rule="evenodd" d="M277.301 122.278C275.306 122.058 273.493 123.159 273.493 123.159C273.493 123.159 273.975 116.739 270.815 110.451C267.654 104.163 252.555 102.453 247.064 108.782C247.064 108.782 244.275 120.981 244.564 129.227C244.85 137.341 249.704 140.465 252.706 141.313C252.603 143.153 252.452 145.351 252.253 147.156C252.072 148.782 250.738 152.547 250.738 152.547C250.738 152.547 248.842 157.77 262.404 158.19C273.262 158.525 274.749 151.552 274.749 151.552C274.749 151.552 274.727 147.323 274.448 143C274.31 140.856 274.199 136.703 274.123 133.065C275.998 133.219 278.62 132.931 280.365 130.605C283.335 126.645 279.893 122.565 277.301 122.278Z" fill="white"/>
<path fill-rule="evenodd" clip-rule="evenodd" d="M320.282 199.194C320.282 199.194 323.674 204.073 325.715 216.392C327.756 228.711 319.882 235.704 305.512 238.079C295.909 239.667 259.47 238.264 259.47 238.264C259.47 238.264 245.986 241.77 239.16 239.643C232.334 237.515 224.357 231.371 224.357 231.371L261.476 232.208L264.739 228.664L296.479 218.793L294.444 214.351C294.444 214.351 301.289 210.94 307.508 207.278C314.485 203.17 320.282 199.194 320.282 199.194Z" fill="white"/>
<path fill-rule="evenodd" clip-rule="evenodd" d="M199.573 232.308H281.738C282.076 232.308 282.349 232.035 282.349 231.696V229.4C282.349 229.061 282.076 228.788 281.738 228.788H199.573C199.236 228.788 198.962 229.061 198.962 229.4V231.696C198.962 232.035 199.236 232.308 199.573 232.308Z" fill="white"/>
<path fill-rule="evenodd" clip-rule="evenodd" d="M179.98 186.821H231.815C233.075 186.821 234.233 187.521 234.819 188.639L255.829 228.664H198.962L178.385 189.464C177.755 188.263 178.625 186.821 179.98 186.821Z" fill="white"/>
<path fill-rule="evenodd" clip-rule="evenodd" d="M212.728 210.729C214.703 212.469 217.343 212.696 218.625 211.236C219.908 209.777 219.347 207.183 217.372 205.445C215.397 203.705 212.757 203.478 211.474 204.938C210.192 206.397 210.753 208.99 212.728 210.729Z" fill="white"/>
<path fill-rule="evenodd" clip-rule="evenodd" d="M12.8516 140.87C12.8516 140.87 22.8571 112.824 33.9342 100.059C45.0114 87.2946 58.261 87.037 58.261 87.037L87.7244 92.5439C87.7244 92.5439 94.3254 99.7291 100.579 102.786C106.832 105.842 108.27 105.401 111.129 105.401C113.988 105.401 113.871 105.894 113.871 105.894C113.871 105.894 117.516 111.488 119.534 116.299C122.857 124.226 124.97 134.138 124.97 134.138L106.293 135.297L110.524 174.506L99.0263 174.525H34.9315L38.5792 147.882C38.5792 147.882 25.8938 149.68 12.8516 140.87Z" fill="#FFCB57"/>
<mask id="mask2_5_4694" style="mask-type:alpha" maskUnits="userSpaceOnUse" x="12" y="87" width="113" height="88">
<path fill-rule="evenodd" clip-rule="evenodd" d="M12.8516 140.87C12.8516 140.87 22.8571 112.824 33.9342 100.059C45.0114 87.2946 58.261 87.037 58.261 87.037L87.7244 92.5439C87.7244 92.5439 94.3254 99.7291 100.579 102.786C106.832 105.842 108.27 105.401 111.129 105.401C113.988 105.401 113.871 105.894 113.871 105.894C113.871 105.894 117.516 111.488 119.534 116.299C122.857 124.226 124.97 134.138 124.97 134.138L106.293 135.297L110.524 174.506L99.0263 174.525H34.9315L38.5792 147.882C38.5792 147.882 25.8938 149.68 12.8516 140.87Z" fill="white"/>
</mask>
<g mask="url(#mask2_5_4694)">
<rect x="-29.5576" y="-52.6324" width="378.897" height="369.491" rx="35.4311" fill="#FFCB57"/>
</g>
<path fill-rule="evenodd" clip-rule="evenodd" d="M101.146 51.7924C97.3402 44.0346 83.5931 45.948 78.7804 51.3783C73.9676 56.8076 71.8829 57.7031 71.8829 57.7031C71.8829 57.7031 70.6855 56.1753 68.3173 55.8191C65.3647 55.3755 61.1456 58.5747 63.0627 63.3046C64.1046 65.8761 66.3568 66.9069 68.2022 67.3174H68.2013C68.2013 67.3174 66.9358 78.292 65.8957 82.6335C64.8557 86.9758 58.0457 87.1967 58.0457 87.1967C58.0457 87.1967 61.5303 98.4622 72.6312 100.024C86.496 101.973 87.6051 92.6868 87.6051 92.6868C87.6051 92.6868 84.5614 91.725 85.2452 87.7591C85.5793 85.818 85.8987 83.9469 86.138 82.5387C86.5117 82.5737 86.8799 82.5976 87.237 82.5994C91.5085 82.6234 96.6674 79.5364 99.134 71.3984C101.602 63.2604 101.146 51.7924 101.146 51.7924Z" fill="white"/>
<path fill-rule="evenodd" clip-rule="evenodd" d="M56.2529 116.942L69.7008 136.925L74.4786 134.894L61.0371 114.331C61.0371 114.331 59.6316 112.507 57.5672 113.594C54.7674 115.069 56.2529 116.942 56.2529 116.942Z" fill="white"/>
<path fill-rule="evenodd" clip-rule="evenodd" d="M14.6654 142.947C14.6654 142.947 8.461 154.294 11.4495 166.065C14.4381 177.836 23.342 179.151 26.8128 179.119C30.2836 179.088 41.0817 174.087 51.3681 160.109C61.6553 146.131 62.8905 145.451 62.8905 145.451L75.7383 141.736L78.2142 133.801C78.2142 133.801 71.5809 131.01 66.539 129.894C61.498 128.777 59.3452 130.23 54.8297 134.458C50.3142 138.687 35.4323 148.98 35.4323 148.98L34.7614 148.686C34.7614 148.686 29.5271 148.544 20.7676 145.888C17.7285 144.966 14.6654 142.947 14.6654 142.947Z" fill="white"/>
<path fill-rule="evenodd" clip-rule="evenodd" d="M136.449 132.123L134.242 132.276L131.304 126.935C131.304 126.935 127.058 127.217 116.541 127.699C106.755 128.147 105.073 133.354 105.073 133.354C105.073 133.354 100.959 128.288 90.3221 128.208C84.079 128.161 76.0789 128.116 76.0789 128.116L73.8654 133.486L73.7301 133.483C73.2607 133.47 72.8391 133.674 72.691 133.983L59.0672 162.4C58.9043 162.739 59.2771 163.095 59.7907 163.09L89.988 162.796C89.988 162.796 90.6442 164.142 94.0948 164.229C97.5454 164.315 98.6296 162.155 98.6296 162.155L121.854 160.066C122.257 160.021 122.592 159.827 122.735 159.559L137.178 132.759C137.355 132.426 136.953 132.075 136.449 132.123Z" fill="white"/>
<path fill-rule="evenodd" clip-rule="evenodd" d="M237.27 228.58C237.766 227.195 240.565 227.361 243.954 228.143C246.359 228.699 249.103 228.833 251.569 229.408C257.785 230.86 261.721 233.346 261.721 233.346L254.258 236.723C254.258 236.723 235.966 232.224 237.27 228.58Z" fill="white"/>
<path fill-rule="evenodd" clip-rule="evenodd" d="M133 143.084C130.786 141.819 121.731 140.916 118.915 140.645C116.097 140.373 115.734 140.301 115.293 141.006C114.387 142.452 115.796 143.897 115.796 143.897C115.796 143.897 113.984 143.807 114.085 145.524C114.149 146.611 116.097 148.235 116.097 148.235C116.097 148.235 114.186 148.687 115.796 151.127C116.318 151.92 120.61 154.297 124.473 156.334L122.735 159.559C122.593 159.827 122.258 160.02 121.854 160.066L109.047 161.218L110.477 174.399L99.6821 174.416L99.6499 175.043H124.613C125.644 173.679 126.637 172.201 127.649 170.653C130.278 166.632 132.372 162.302 133.479 159.855C134.784 159.395 135.86 157.799 135.917 153.928C136.018 147.151 135.213 144.35 133 143.084Z" fill="white"/>
<mask id="mask3_5_4694" style="mask-type:alpha" maskUnits="userSpaceOnUse" x="0" y="30" width="336" height="214">
<path fill-rule="evenodd" clip-rule="evenodd" d="M190.126 186.568H191.409V182.705C190.95 181.858 190.522 181.059 190.126 180.314V186.568Z" fill="#393F49"/>
<path fill-rule="evenodd" clip-rule="evenodd" d="M258.362 121.341C258.236 122.225 258.684 123.019 259.362 123.116C260.04 123.213 260.692 122.575 260.818 121.691C260.944 120.808 260.496 120.014 259.818 119.917C259.139 119.82 258.488 120.458 258.362 121.341Z" fill="#393F49"/>
<path fill-rule="evenodd" clip-rule="evenodd" d="M144.591 158.17C144.591 166.867 137.519 173.943 128.826 173.943H126.147C126.96 172.81 127.745 171.657 128.472 170.544C131.03 166.63 133.095 162.4 134.239 159.89C135.519 159.303 136.781 157.66 136.844 153.47C136.947 146.469 136.099 143.482 133.603 142.055C133.454 141.969 133.268 141.884 133.064 141.802L138.028 132.584C138.203 132.256 138.184 131.875 137.976 131.564C137.716 131.174 137.208 130.955 136.689 131.005L134.89 131.129L132.151 126.146C132.033 125.927 131.811 125.799 131.547 125.814C131.515 125.816 129.165 125.971 123.812 126.24C123.037 123.731 122.042 120.68 120.778 117.15C118.634 111.164 116.133 107.37 114.843 105.652C116.502 105.154 117.755 104.115 118.164 102.218C119.569 95.7177 117.462 93.609 114.126 90.9736C110.79 88.3382 108.858 86.0545 112.896 83.77C116.936 81.4863 116.76 75.1611 113.774 73.0524C110.79 70.9437 107.278 67.6057 108.331 64.2677C109.385 60.9288 112.679 58.6111 110.438 50.0363C110.276 49.4157 110.058 48.8595 109.817 48.3337H128.826C137.519 48.3337 144.591 55.4094 144.591 64.1066V158.17ZM71.0604 129.91C69.691 129.477 68.2839 129.078 66.9725 128.788C66.4277 128.667 65.9326 128.595 65.444 128.533L57.0815 116.098L57.0548 116.063C57.0511 116.058 56.7005 115.587 56.8229 115.037C56.9306 114.551 57.3935 114.081 58.1619 113.676C58.5337 113.48 58.877 113.405 59.1834 113.405C60.1313 113.405 60.7341 114.121 60.7957 114.195L71.0604 129.91ZM116.799 126.577C110.047 126.887 106.975 129.401 105.655 131.105C102.649 112.23 98.0206 104.368 97.8172 104.033C97.6341 103.73 97.2393 103.634 96.9356 103.817C96.6337 104.001 96.5371 104.396 96.7193 104.699C96.7681 104.779 101.38 112.645 104.352 131.09C102.286 129.511 97.9727 127.142 90.6189 127.086C84.3748 127.039 76.3768 126.993 76.3768 126.993H76.3731C76.1127 126.993 75.878 127.149 75.7795 127.391L74.2887 131.008C73.8718 130.858 73.4605 130.709 73.0151 130.555L61.8412 113.452C61.2412 112.673 59.5764 111.48 57.5647 112.539C56.4245 113.14 55.7518 113.895 55.565 114.783C55.3422 115.842 55.899 116.66 56.0269 116.83L63.8336 128.438C60.5013 128.48 58.2457 130.178 54.6879 133.513C53.5358 134.591 51.0593 136.526 48.028 138.798C49.4387 134.774 52.4057 125.927 53.4658 119.825C53.5266 119.476 53.2928 119.144 52.9431 119.083C52.5943 119.026 52.2621 119.257 52.2014 119.606C50.936 126.882 46.8988 138.181 46.1745 140.177C43.2545 142.338 40.0014 144.692 36.9728 146.862C33.3239 147.009 23.5608 146.676 13.5695 140.138C14.4695 137.7 18.7892 126.278 24.5013 115.424C24.5501 115.332 24.5979 115.241 24.6467 115.15C25.1142 114.266 25.5909 113.387 26.0759 112.516C26.1817 112.328 26.2876 112.139 26.3925 111.953C26.7928 111.243 27.1986 110.542 27.6091 109.85C27.7821 109.558 27.9551 109.266 28.1272 108.981C28.3508 108.612 28.5753 108.244 28.8017 107.882C29.1468 107.329 29.491 106.79 29.8324 106.27C30.0045 106.007 30.1775 105.751 30.3515 105.493C30.6625 105.032 30.9717 104.582 31.28 104.147C31.3849 103.998 31.4907 103.843 31.5957 103.696C32.007 103.128 32.4138 102.59 32.8178 102.07C32.931 101.923 33.0442 101.78 33.1583 101.637C33.5825 101.104 34.0049 100.586 34.4227 100.107C35.0494 99.39 35.6835 98.7169 36.3222 98.0778C36.5357 97.8651 36.7501 97.6754 36.9636 97.471C37.3915 97.0612 37.8185 96.6524 38.2483 96.2748C38.506 96.0501 38.7627 95.8457 39.0204 95.6312C39.4087 95.3079 39.7971 94.9838 40.1854 94.6855C40.4597 94.4746 40.7321 94.2803 41.0054 94.0814C41.3753 93.8125 41.7444 93.5455 42.1116 93.2978C42.3932 93.1072 42.6729 92.9294 42.9527 92.7517C43.307 92.5252 43.6613 92.3042 44.0119 92.0961C44.2954 91.9285 44.577 91.7692 44.8567 91.6136C45.1945 91.4257 45.5294 91.2443 45.8616 91.0721C46.146 90.9257 46.4285 90.7821 46.7083 90.6458C47.023 90.4939 47.3322 90.3502 47.6405 90.2112C47.9249 90.0832 48.2092 89.9552 48.4872 89.8373C48.7715 89.7185 49.0495 89.608 49.3255 89.4994C49.6117 89.3879 49.8998 89.2738 50.1777 89.1725C50.4197 89.085 50.6526 89.0076 50.8881 88.9275C51.1826 88.8272 51.479 88.724 51.7606 88.6375C51.9382 88.5822 52.1038 88.5362 52.2759 88.4855C52.5952 88.3925 52.9173 88.2958 53.2174 88.2176C53.2624 88.2056 53.302 88.1973 53.3462 88.1853C55.0045 87.7562 56.3481 87.5417 57.2398 87.4358C57.2674 87.433 57.3024 87.4275 57.3291 87.4247C57.4708 87.4082 57.5794 87.3989 57.6963 87.387C57.7644 87.3815 57.8426 87.3732 57.9006 87.3686C58.7288 89.5592 62.7799 98.7509 72.8347 100.166C74.135 100.349 75.3848 100.442 76.5498 100.442C76.6179 100.442 76.6842 100.442 76.7514 100.441C77.1057 100.438 77.39 100.147 77.3873 99.7933C77.3836 99.4397 77.0974 99.157 76.7449 99.157H76.7403C75.5679 99.1598 74.3255 99.0797 73.0141 98.8946C64.1142 97.6423 60.25 89.7682 59.2368 87.2682C61.2163 87.0398 65.9005 86.0987 66.8134 82.281C66.8824 81.9955 66.9514 81.6797 67.0214 81.3436C67.0278 81.3113 67.0352 81.2745 67.0416 81.2423C67.8818 77.1483 68.7791 69.859 69.0515 67.5772C70.3122 67.7733 71.2684 67.7089 71.3678 67.7015C71.7212 67.6739 71.9853 67.3645 71.9577 67.0109C71.9301 66.6573 71.6126 66.3939 71.2675 66.4206C71.2408 66.4234 70.0325 66.5007 68.5757 66.1646C68.3567 66.1149 68.1478 66.056 67.9416 65.9934C67.8634 65.9694 67.7852 65.9473 67.706 65.9197C67.5781 65.8764 67.4585 65.8267 67.3361 65.7788C66.6109 65.4915 65.8876 65.0854 65.2636 64.4915C65.2627 64.4906 65.2618 64.4906 65.2618 64.4896C65.1026 64.3377 64.9526 64.1701 64.809 63.9952C64.7888 63.9712 64.7667 63.9491 64.7474 63.9243C64.6204 63.7631 64.5035 63.5863 64.3903 63.4031C64.3636 63.3598 64.3323 63.3193 64.3066 63.2741C64.1759 63.0495 64.0563 62.8101 63.9523 62.5522C63.8621 62.3312 63.7866 62.1111 63.725 61.8929C63.7047 61.822 63.6955 61.752 63.679 61.6811C63.6431 61.5347 63.6053 61.3883 63.5823 61.2446C63.5667 61.1424 63.5639 61.043 63.5538 60.9426C63.5428 60.8312 63.5262 60.7198 63.5225 60.6102C63.5188 60.4776 63.5299 60.3487 63.5363 60.2179C63.5409 60.1433 63.5372 60.0669 63.5455 59.9942C63.563 59.8256 63.5952 59.6608 63.6311 59.4978C63.6385 59.4656 63.6412 59.4315 63.6486 59.3993C63.7931 58.8155 64.0599 58.2676 64.4464 57.7722C65.4413 56.4968 67.1115 55.7381 68.5177 55.9397C70.5819 56.2501 71.6632 57.5751 71.6724 57.5862L71.9761 57.9739L72.2522 57.856C72.2586 57.9094 72.2641 57.9554 72.2724 58.0125C72.4463 59.0181 72.6083 59.8616 73.1724 60.4951C73.8838 61.2925 75.117 61.1608 76.3814 59.6663C77.6459 58.1709 79.4707 56.6055 83.1629 55.5456C89.0121 53.8651 93.9346 53.3108 97.3819 50.5501C97.3819 50.5501 99.8234 52.1855 100.755 56.9232C100.743 57.2528 100.724 57.6055 100.707 57.9527C99.0163 56.9306 97.2273 57.5355 96.4175 58.0982C96.1267 58.2998 96.054 58.7004 96.2573 58.9923C96.4589 59.2833 96.8574 59.3551 97.15 59.1525C97.2245 59.1 98.9942 57.9085 100.616 59.4941C100.376 63.0605 99.8703 67.2042 98.8102 70.7043C96.4083 78.6336 91.4416 81.455 87.5755 81.455H87.5323C84.0546 81.4357 80.5125 79.8822 77.8143 77.1943C76.3032 75.6878 74.6715 73.2191 73.4476 70.5883C73.2994 70.2678 72.9184 70.127 72.5954 70.278C72.2742 70.4262 72.1353 70.8084 72.2844 71.1307C73.5681 73.8904 75.2964 76.4963 76.9087 78.1032C79.526 80.7119 82.8868 82.3289 86.2872 82.665C86.0875 83.9615 86.0322 85.223 85.5371 87.259C84.1604 92.9138 97.2917 101.687 101.224 103.418C101.785 103.664 102.459 103.935 103.205 104.205C105.499 105.157 106.991 105.505 108.261 105.622C110.046 105.969 111.857 106.134 113.443 105.947C114.458 107.228 117.246 111.092 119.57 117.583C120.775 120.949 121.733 123.873 122.49 126.307C120.839 126.389 118.958 126.478 116.799 126.577ZM109.426 132.89L109.045 132.888L108.893 133.254C108.886 133.264 108.322 134.232 105.434 134.362C102.513 134.498 101.753 133.404 101.751 133.404L101.573 133.089L75.1077 132.392L76.801 128.28C78.5449 128.289 85.2288 128.329 90.6087 128.37C100.77 128.447 104.826 133.235 104.865 133.284C105.013 133.463 105.247 133.549 105.477 133.506C105.707 133.463 105.896 133.3 105.971 133.079C106.037 132.883 107.701 128.28 116.857 127.86C125.477 127.465 129.927 127.201 131.223 127.121L133.479 131.227L109.426 132.89ZM114.998 142.979C114.756 143.077 114.506 143.223 114.29 143.441C114.008 143.725 113.683 144.243 113.732 145.091C113.785 145.989 114.664 147.016 115.322 147.664C115.167 147.818 115.026 148.015 114.928 148.264C114.63 149.014 114.839 149.937 115.547 151.012C115.749 151.318 116.268 152.084 123.888 156.133L122.455 158.794C122.433 158.835 122.304 158.937 122.083 158.962L99.7533 160.971L105.109 146.845C105.235 146.513 105.069 146.142 104.737 146.017C104.409 145.892 104.036 146.059 103.91 146.39L98.0867 161.751C97.6358 162.271 96.5453 163.171 94.402 163.124C92.2439 163.071 91.3347 162.501 91.0108 162.215L92.474 158.378C92.6001 158.047 92.4344 157.676 92.1031 157.55C91.7737 157.423 91.401 157.589 91.2749 157.921L89.8347 161.695L60.0797 161.985C60.0705 161.986 60.0603 161.985 60.0511 161.984L73.5616 133.787C73.5883 133.743 73.7714 133.639 74.007 133.648L100.271 134.338L94.632 149.119C94.506 149.45 94.6716 149.821 95.0029 149.948C95.0784 149.977 95.1548 149.99 95.2321 149.99C95.4897 149.99 95.7336 149.832 95.8312 149.576L101.459 134.824C102.163 135.278 103.397 135.737 105.492 135.645C106.649 135.592 107.507 135.409 108.16 135.179L107.508 136.9C107.381 137.232 107.548 137.603 107.879 137.728C107.954 137.756 108.031 137.769 108.107 137.769C108.366 137.769 108.609 137.612 108.707 137.355L109.924 134.143L136.73 132.289L131.828 141.39C129.432 140.728 125.225 140.105 119.263 139.532L118.882 139.495C116.286 139.244 115.668 139.184 115.036 140.192C114.415 141.184 114.616 142.217 114.998 142.979ZM109.783 173.943H38.4029C42.2717 171.055 46.8841 166.679 52.1655 160.044L52.944 159.068C55.0395 156.442 57.9098 152.844 59.6463 150.4C59.8506 150.111 59.7834 149.71 59.4945 149.504C59.2046 149.298 58.8052 149.366 58.6 149.656C56.8846 152.071 54.0272 155.652 51.9409 158.267L51.1624 159.244C38.7664 174.817 30.149 177.568 27.0192 178.03C24.1608 178.456 15.3161 177.045 12.3731 165.446C10.8132 159.297 11.8927 153.14 13.0734 149.057C13.1719 148.715 12.9759 148.36 12.6363 148.26C12.293 148.163 11.9397 148.359 11.8412 148.699C10.6163 152.935 9.49911 159.334 11.1289 165.761C12.0032 169.207 13.379 171.809 14.9738 173.773C7.26194 172.751 1.28296 166.161 1.28296 158.17V64.1066C1.28296 55.4094 8.35429 48.3337 17.0471 48.3337H59.6767C57.4957 51.2923 54.502 54.053 49.5077 54.9554C39.486 56.7667 33.9709 59.5761 32.827 69.0118C32.2766 73.5497 32.4607 77.7137 26.6704 79.3509C21.7239 80.7496 14.209 82.1548 8.66903 87.9165C1.848 95.0114 1.74769 108.719 11.0544 115.396C15.3704 118.493 18.688 119.383 21.0227 119.462C15.8195 130.125 12.247 140.009 12.1872 140.175C12.0887 140.453 12.19 140.761 12.4338 140.925C13.2796 141.493 14.1216 142.003 14.9591 142.488C14.96 142.488 14.9664 142.475 14.9664 142.475C14.9664 142.475 15.0925 142.556 15.2701 142.666C17.2257 143.776 19.1509 144.679 21.0043 145.395C21.0255 145.401 21.0466 145.41 21.0678 145.417C27.7425 147.442 32.3604 148.005 34.1853 148.159C34.512 148.172 34.823 148.18 35.1221 148.185C30.1214 151.755 26.1375 154.542 26.04 154.61C25.7501 154.814 25.6793 155.214 25.8817 155.504C26.0069 155.683 26.2056 155.779 26.409 155.779C26.5351 155.779 26.663 155.741 26.7762 155.663C27.448 155.192 38.4296 147.507 46.8077 141.309C46.9706 141.268 47.1058 141.174 47.1951 141.022C50.9728 138.22 54.1707 135.754 55.564 134.45C59.9592 130.331 61.9221 128.985 66.6947 130.042C68.988 130.55 71.6135 131.415 73.7973 132.2L73.7163 132.397C73.108 132.474 72.6267 132.765 72.4049 133.23L72.1638 133.73L65.6299 133.177C65.2857 133.141 64.9673 133.409 64.9369 133.763C64.9075 134.115 65.1688 134.427 65.5222 134.456L71.5712 134.969L70.1944 137.843C70.1889 137.842 70.1843 137.839 70.1797 137.839H62.4467C62.0915 137.839 61.8044 138.126 61.8044 138.482C61.8044 138.836 62.0915 139.124 62.4467 139.124H69.5806L67.7392 142.965C67.6388 142.949 67.5358 142.948 67.4318 142.982C61.3359 145.014 55.8337 144.229 55.7784 144.221C55.4352 144.176 55.102 144.411 55.0496 144.762C54.9971 145.113 55.2382 145.439 55.5879 145.491C55.691 145.507 56.8239 145.671 58.6027 145.671C60.7148 145.671 63.7415 145.43 67.0305 144.446L58.7822 161.66C58.6267 161.986 58.6506 162.35 58.8466 162.658C59.0905 163.04 59.5617 163.266 60.0917 163.27L89.9618 162.978C90.4265 163.488 91.6118 164.339 94.3689 164.408C94.4426 164.41 94.5153 164.411 94.587 164.411C96.7883 164.411 98.0951 163.563 98.8019 162.867C98.9592 162.801 99.0982 162.698 99.1645 162.526L99.2095 162.406C99.2344 162.372 99.2684 162.333 99.2896 162.303L122.213 160.24C122.829 160.168 123.344 159.854 123.586 159.399L125.021 156.733C125.652 157.064 126.318 157.411 127.037 157.784C127.352 157.946 127.738 157.823 127.902 157.508C128.064 157.193 127.941 156.806 127.626 156.643C118.041 151.686 116.777 150.537 116.618 150.304C116.177 149.637 115.994 149.068 116.117 148.745C116.173 148.595 116.296 148.505 116.395 148.452L128.518 152.866C128.591 152.893 128.665 152.905 128.737 152.905C129 152.905 129.246 152.744 129.341 152.483C129.462 152.15 129.29 151.781 128.957 151.66L116.716 147.203C116.019 146.604 115.044 145.546 115.012 145.015C114.987 144.565 115.145 144.402 115.197 144.349C115.421 144.119 115.825 144.069 116.004 144.069L129.462 147.544C129.516 147.558 129.57 147.564 129.623 147.564C129.908 147.564 130.169 147.372 130.245 147.082C130.332 146.739 130.126 146.389 129.783 146.3L116.438 142.854C116.188 142.546 115.612 141.69 116.123 140.873C116.31 140.575 116.335 140.538 118.758 140.773L119.139 140.81C129.287 141.786 132.157 142.707 132.966 143.169C134.95 144.304 135.654 147.092 135.559 153.451C135.525 155.73 135.101 158.517 133.27 158.864C132.923 158.931 132.693 159.266 132.76 159.614C132.775 159.697 132.808 159.771 132.85 159.839C131.689 162.347 129.755 166.235 127.397 169.842C126.519 171.186 125.572 172.607 124.577 173.943H109.783ZM128.826 47.0492H109.115C106.368 42.853 101.308 42.306 101.308 42.306C101.308 42.306 96.6364 30.3094 83.2023 30.7652C72.7343 31.1198 67.947 35.5489 63.3936 42.4984C62.5221 43.8281 61.6432 45.4331 60.5766 47.0492H17.048C7.64742 47.0492 0 54.7013 0 64.1066V158.17C0 167.313 7.2333 174.778 16.2731 175.188C19.6882 178.488 23.7153 179.371 26.1098 179.371C26.5295 179.371 26.8994 179.345 27.2059 179.3C29.2378 179.001 32.4109 178.029 36.5963 175.228H99.2656H125.218H128.826C138.226 175.228 145.874 167.576 145.874 158.17V64.1066C145.874 54.7013 138.226 47.0492 128.826 47.0492Z" fill="#393F49"/>
<path fill-rule="evenodd" clip-rule="evenodd" d="M83.0546 97.7264C82.2042 98.1896 81.237 98.5451 80.1787 98.7836C79.8336 98.8609 79.6164 99.2044 79.6947 99.5506C79.7609 99.8499 80.026 100.052 80.3195 100.052C80.3655 100.052 80.4134 100.047 80.4612 100.036C81.6346 99.7725 82.7131 99.3747 83.6684 98.8535C83.9794 98.685 84.0945 98.2946 83.9251 97.9834C83.7549 97.6721 83.3665 97.5561 83.0546 97.7264Z" fill="#393F49"/>
<path fill-rule="evenodd" clip-rule="evenodd" d="M87.5976 63.7618C87.0998 64.4101 87.0446 65.4018 87.4752 65.9773C87.9059 66.5528 88.6587 66.4939 89.1566 65.8456C89.6544 65.1983 89.7087 64.2056 89.279 63.6301C88.8483 63.0546 88.0964 63.1135 87.5976 63.7618Z" fill="#393F49"/>
<path fill-rule="evenodd" clip-rule="evenodd" d="M98.5001 66.4254C98.9428 65.7495 98.9593 64.7578 98.536 64.2099C98.1127 63.6629 97.4096 63.767 96.966 64.4429C96.5234 65.1188 96.5068 66.1105 96.9301 66.6575C97.3544 67.2054 98.0565 67.1013 98.5001 66.4254Z" fill="#393F49"/>
<path fill-rule="evenodd" clip-rule="evenodd" d="M91.1988 74.0726L92.9528 74.243C93.0099 74.2485 93.0651 74.2522 93.1194 74.2522C93.5262 74.2522 93.8888 74.08 94.1299 73.7678C94.4041 73.4115 94.4722 72.9234 94.3323 72.5763L93.9191 70.8359C93.609 68.8147 94.0296 67.0845 94.0342 67.067C94.1197 66.7235 93.9108 66.3745 93.5676 66.2889C93.2216 66.2014 92.8765 66.4095 92.79 66.753C92.7697 66.834 92.2995 68.7419 92.6602 71.0809L93.0863 72.9658L91.3212 72.7945C90.9734 72.7632 90.6559 73.0183 90.6218 73.3728C90.5868 73.7246 90.8464 74.0386 91.1988 74.0726Z" fill="#393F49"/>
<path fill-rule="evenodd" clip-rule="evenodd" d="M84.2654 78.0347C84.3841 78.0347 84.5046 78.0015 84.6123 77.9316C84.9105 77.74 84.9961 77.3422 84.8037 77.0448C84.212 76.1277 83.9092 75.3523 83.7666 74.7317C84.8267 75.9665 86.7206 77.3072 89.8542 77.0641C90.2075 77.0356 90.4717 76.7262 90.4431 76.3726C90.4155 76.0199 90.1035 75.7538 89.7529 75.7842C85.181 76.1488 83.8789 72.5871 83.8264 72.4388C83.7427 72.1957 83.5209 72.0254 83.2641 72.0079C83.0037 72.0014 82.7653 72.1276 82.6485 72.3569C82.6052 72.4416 81.6159 74.4674 83.7261 77.7409C83.8485 77.9306 84.0546 78.0347 84.2654 78.0347Z" fill="#393F49"/>
<path fill-rule="evenodd" clip-rule="evenodd" d="M84.5233 59.7076C84.7027 59.7076 84.8812 59.6321 85.0082 59.4848C85.0782 59.4047 86.7282 57.5427 89.3786 59.0087C89.6896 59.179 90.0798 59.0658 90.251 58.7564C90.4222 58.4461 90.309 58.0556 89.9988 57.8834C87.1589 56.3144 84.8573 57.6956 84.0374 58.6459C83.8054 58.9139 83.8358 59.319 84.1036 59.5511C84.2251 59.656 84.3742 59.7076 84.5233 59.7076Z" fill="#393F49"/>
<path fill-rule="evenodd" clip-rule="evenodd" d="M69.0451 57.8169C68.2169 57.7442 67.3988 57.9965 66.7564 58.5315C66.1132 59.0683 65.7184 59.8234 65.6429 60.6568C65.5675 61.491 65.8215 62.3041 66.357 62.9478C66.8936 63.5905 67.6473 63.9856 68.481 64.062C68.5003 64.0638 68.5197 64.0648 68.5399 64.0648C68.8675 64.0648 69.1482 63.8134 69.1786 63.48C69.2099 63.1273 68.9494 62.8143 68.597 62.783C68.1046 62.7378 67.6592 62.5039 67.3427 62.1255C67.0261 61.7452 66.877 61.2654 66.9212 60.7728C66.9653 60.2801 67.1991 59.8345 67.5782 59.5177C67.9583 59.2019 68.4396 59.0545 68.9301 59.096C69.4215 59.1402 69.8679 59.374 70.1835 59.7544C70.4099 60.026 70.813 60.0637 71.0872 59.8354C71.3596 59.6079 71.3964 59.2037 71.1691 58.9311C70.6335 58.2884 69.8789 57.8934 69.0451 57.8169Z" fill="#393F49"/>
<path fill-rule="evenodd" clip-rule="evenodd" d="M229.314 228.51L229.329 228.386H228.036L228.021 228.51H229.314Z" fill="#393F49"/>
<path fill-rule="evenodd" clip-rule="evenodd" d="M248.261 120.928C248.871 121.031 249.486 120.4 249.634 119.521C249.781 118.641 249.407 117.844 248.797 117.742C248.187 117.639 247.572 118.269 247.424 119.149C247.276 120.028 247.651 120.826 248.261 120.928Z" fill="#393F49"/>
<path fill-rule="evenodd" clip-rule="evenodd" d="M260.751 129.995C260.503 129.953 260.249 130.062 260.109 130.272C260.022 130.4 257.941 133.414 253.765 131.991C253.429 131.876 253.064 132.056 252.95 132.391C252.836 132.727 253.015 133.092 253.35 133.206C256.595 134.313 258.853 133.152 260.084 132.133C259.962 133.278 259.348 134.875 257.055 135.79C256.726 135.922 256.566 136.296 256.697 136.624C256.798 136.876 257.039 137.029 257.294 137.029C257.373 137.029 257.454 137.014 257.531 136.983C262.37 135.049 261.276 130.514 261.265 130.469C261.202 130.224 261 130.038 260.751 129.995Z" fill="#393F49"/>
<path fill-rule="evenodd" clip-rule="evenodd" d="M261.053 113.119C260.718 113.233 260.538 113.598 260.653 113.933C260.767 114.269 261.132 114.453 261.467 114.333C264.195 113.406 265.477 115.434 265.534 115.527C265.654 115.728 265.865 115.838 266.083 115.838C266.195 115.838 266.308 115.809 266.411 115.748C266.716 115.566 266.816 115.172 266.635 114.867C266.011 113.818 264.041 112.101 261.053 113.119Z" fill="#393F49"/>
<path fill-rule="evenodd" clip-rule="evenodd" d="M247.263 111.911C246.978 112.121 246.916 112.522 247.125 112.809C247.334 113.094 247.734 113.157 248.022 112.947C249.775 111.664 251.254 112.973 251.417 113.127C251.541 113.246 251.701 113.305 251.86 113.305C252.028 113.305 252.196 113.239 252.322 113.109C252.569 112.853 252.56 112.447 252.305 112.2C251.496 111.418 249.399 110.348 247.263 111.911Z" fill="#393F49"/>
<path fill-rule="evenodd" clip-rule="evenodd" d="M273.701 129.697C274.182 129.987 274.72 130.135 275.268 130.135C275.517 130.135 275.767 130.103 276.014 130.042C276.807 129.844 277.474 129.348 277.894 128.649C278.314 127.948 278.437 127.126 278.238 126.335C278.152 125.99 277.803 125.779 277.46 125.867C277.116 125.953 276.907 126.301 276.994 126.646C277.109 127.105 277.037 127.582 276.794 127.988C276.55 128.394 276.163 128.681 275.703 128.796C275.245 128.908 274.767 128.839 274.362 128.596C274.057 128.414 273.664 128.513 273.481 128.816C273.299 129.121 273.397 129.515 273.701 129.697Z" fill="#393F49"/>
<path fill-rule="evenodd" clip-rule="evenodd" d="M253.29 156.508C255.371 157.853 258.128 158.527 261.531 158.527C263.982 158.527 266.768 158.177 269.877 157.478C270.223 157.399 270.441 157.056 270.363 156.71C270.284 156.364 269.942 156.143 269.596 156.224C260.827 158.199 256.292 156.898 254.034 155.46C251.794 154.034 251.375 152.271 251.353 152.18C251.282 151.833 250.945 151.611 250.597 151.683C250.25 151.754 250.026 152.093 250.098 152.441C250.117 152.535 250.602 154.77 253.29 156.508Z" fill="#393F49"/>
<path fill-rule="evenodd" clip-rule="evenodd" d="M211.946 205.098C212.372 204.613 213.019 204.354 213.788 204.354C213.89 204.354 213.994 204.359 214.099 204.368C215.077 204.452 216.085 204.911 216.938 205.662C217.791 206.413 218.374 207.355 218.582 208.315C218.775 209.203 218.616 209.994 218.133 210.544C217.651 211.092 216.88 211.345 215.981 211.275C215.002 211.191 213.995 210.73 213.142 209.981C212.289 209.23 211.704 208.288 211.497 207.327C211.304 206.438 211.464 205.647 211.946 205.098ZM212.295 210.944C213.352 211.875 214.622 212.446 215.872 212.554C216.015 212.566 216.157 212.572 216.296 212.572C217.438 212.572 218.422 212.16 219.098 211.391C219.856 210.53 220.118 209.34 219.838 208.044C219.572 206.817 218.843 205.629 217.786 204.699C216.729 203.767 215.459 203.195 214.209 203.089C212.888 202.973 211.743 203.388 210.983 204.251C210.225 205.112 209.963 206.301 210.243 207.6C210.509 208.825 211.237 210.013 212.295 210.944Z" fill="#393F49"/>
<path fill-rule="evenodd" clip-rule="evenodd" d="M314.6 215.489C314.605 215.135 314.323 214.844 313.967 214.837C305.051 214.692 298.313 217.504 298.031 217.624C297.705 217.763 297.554 218.138 297.692 218.464C297.795 218.709 298.033 218.856 298.282 218.856C298.366 218.856 298.451 218.84 298.533 218.805C298.6 218.776 305.288 215.967 313.948 216.122C314.3 216.084 314.594 215.843 314.6 215.489Z" fill="#393F49"/>
<path fill-rule="evenodd" clip-rule="evenodd" d="M334.716 226.027C334.716 234.725 327.645 241.8 318.953 241.8H303.532L302.671 238.768C303.801 238.674 304.797 238.563 305.602 238.43C313.094 237.192 318.681 234.737 322.21 231.134C325.971 227.293 327.358 222.208 326.332 216.016C324.616 205.666 321.979 200.545 321.095 199.05C322.607 197.857 323.875 196.709 324.728 195.666L325.067 195.25L324.717 194.842C324.035 194.044 322.083 191.299 319.382 187.5C315.099 181.476 308.627 172.372 301.397 162.846C293.288 152.16 281.575 149.069 275.295 148.167L274.947 133.652C274.946 133.606 274.929 133.567 274.92 133.525C276.838 133.531 279.193 132.994 280.864 130.768C282.221 128.959 282.508 126.896 281.67 124.96C281.247 123.981 280.542 123.112 279.726 122.475C279.85 122.326 280.078 121.924 280.228 121.546C280.228 121.546 281.459 119.375 282.575 116.191H318.953C327.645 116.191 334.716 123.266 334.716 131.965V226.027ZM191.409 226.027V215.402L198.433 228.776C198.356 228.956 198.311 229.154 198.311 229.364V231.176C198.311 232 198.981 232.671 199.805 232.671H225.412C225.932 233.041 226.577 233.49 227.314 233.981L226.303 241.8H207.174C198.482 241.8 191.409 234.725 191.409 226.027ZM254.903 229.153H281.483C281.599 229.153 281.693 229.247 281.693 229.364V231.176C281.693 231.293 281.599 231.387 281.483 231.387H260.521C259.242 230.751 257.326 229.91 254.903 229.153ZM199.805 231.387C199.689 231.387 199.595 231.293 199.595 231.176V229.364C199.595 229.247 199.689 229.153 199.805 229.153H236.947C236.987 229.265 237.031 229.378 237.092 229.49C237.435 230.131 238.175 230.768 239.149 231.387H199.805ZM259.483 237.34C259.42 237.34 259.357 237.346 259.298 237.359C259.162 237.394 245.91 240.793 239.339 238.745C235.193 237.454 230.594 234.632 227.685 232.671H241.547C246.355 234.901 253.289 236.652 254.373 236.918C254.425 236.93 254.476 236.936 254.527 236.936C254.815 236.936 255.078 236.741 255.15 236.447C255.234 236.104 255.024 235.755 254.68 235.671C250.573 234.661 239.611 231.472 238.222 228.883C238.081 228.62 238.11 228.463 238.145 228.366C238.37 227.739 240.044 227.406 244.08 228.339C245.296 228.619 246.605 228.796 247.872 228.968C249.151 229.14 250.472 229.319 251.691 229.604C257.716 231.011 261.608 233.437 261.647 233.461C261.947 233.649 262.343 233.56 262.532 233.26C262.648 233.075 262.647 232.858 262.569 232.671H281.483C282.307 232.671 282.977 232 282.977 231.176V229.363C282.977 228.539 282.307 227.868 281.483 227.868H268.555L296.655 219.135C296.831 219.08 296.975 218.951 297.05 218.783C297.125 218.614 297.124 218.422 297.048 218.255L295.272 214.376C297.03 213.486 302.668 210.596 307.818 207.566C313.494 204.227 318.443 200.937 320.068 199.843C320.956 201.413 323.449 206.474 325.065 216.226C326.022 221.991 324.752 226.704 321.294 230.236C317.96 233.64 312.61 235.971 305.393 237.164C295.962 238.72 259.847 237.353 259.483 237.34ZM227.601 241.77L228.506 234.76C231.42 236.627 235.32 238.838 238.958 239.971C240.623 240.491 242.651 240.689 244.778 240.689C251.207 240.689 258.545 238.877 259.528 238.626C261.721 238.709 288.62 239.705 301.364 238.866L302.188 241.77H227.601ZM256.586 122.874C256.538 121.507 257.024 120.203 257.956 119.202C258.888 118.201 260.153 117.623 261.519 117.574C261.582 117.572 261.643 117.571 261.706 117.571C263.003 117.571 264.235 118.055 265.189 118.944C266.189 119.877 266.767 121.143 266.816 122.51C266.864 123.877 266.378 125.181 265.446 126.182C264.514 127.183 263.248 127.761 261.882 127.81C260.517 127.852 259.214 127.372 258.212 126.44C257.212 125.507 256.635 124.241 256.586 122.874ZM178.979 187.77C179.191 187.418 179.562 187.21 179.972 187.21H231.805C232.83 187.21 233.763 187.774 234.24 188.682L248.572 215.969C248.736 216.283 249.123 216.403 249.438 216.239C249.751 216.075 249.872 215.686 249.706 215.372L235.377 188.086C235.177 187.706 234.92 187.373 234.624 187.084C236.54 173.949 238.334 166.03 238.358 165.923C238.437 165.577 238.222 165.233 237.876 165.154C237.531 165.073 237.187 165.29 237.107 165.637C237.083 165.742 235.336 173.457 233.446 186.276C232.938 186.05 232.382 185.925 231.805 185.925H219.473C218.632 184.143 218.039 182.754 217.787 182.149C219.458 179.915 230.259 165.527 233.928 162.039C241.798 154.559 248.302 151.342 251.457 150.093C251.612 149.589 251.769 149.054 251.903 148.545C249.082 149.525 241.98 152.615 233.045 161.109C229.004 164.95 217.048 180.991 216.541 181.673L216.327 181.961L216.46 182.294C216.5 182.396 216.662 182.796 216.929 183.421L216.357 183.945C215.535 183.095 213.426 180.761 209.539 175.575C204.12 168.347 199.751 162.668 198.656 161.354C197.986 160.548 198.014 160.055 198.303 157.222C198.385 156.424 198.483 155.459 198.581 154.278C199.025 148.949 199.247 145.842 199.247 145.842C199.267 145.574 199.117 145.322 198.873 145.211C197.898 144.77 196.928 144.772 195.99 145.224C193.596 146.374 192.057 150.296 191.409 152.29V131.965C191.409 123.267 198.482 116.191 207.174 116.191H241.651C240.847 117.304 240.412 118.631 240.462 120.026C240.52 121.684 241.22 123.219 242.434 124.349C242.89 124.775 243.411 125.101 243.957 125.367C243.895 126.63 243.871 127.867 243.912 129.027C244.185 136.777 248.62 140.68 252.68 141.749C254.077 142.118 255.405 142.304 256.702 142.304C259.01 142.304 261.22 141.714 263.545 140.513C265.807 139.343 268.134 137.474 269.767 135.514C269.995 135.24 269.957 134.835 269.685 134.608C269.412 134.382 269.008 134.419 268.782 134.69C267.275 136.499 265.043 138.293 262.956 139.372C259.628 141.094 256.559 141.443 253.007 140.508C251.758 140.179 245.514 138.079 245.194 128.982C245.159 127.983 245.172 126.919 245.22 125.826C245.688 125.938 246.164 126.014 246.656 126.014C246.731 126.014 246.807 126.013 246.881 126.01C248.106 125.966 249.262 125.568 250.239 124.874C250.031 125.269 249.794 125.683 249.514 126.121C248.017 128.461 248.033 128.532 248.1 128.825C248.153 129.059 248.333 129.244 248.564 129.303L251.879 130.165C251.933 130.179 251.987 130.186 252.041 130.186C252.326 130.186 252.586 129.993 252.661 129.705C252.75 129.361 252.545 129.012 252.201 128.922L249.684 128.268C249.873 127.956 250.159 127.494 250.594 126.814C252.938 123.151 252.836 120.744 252.832 120.644C252.829 120.603 252.812 120.568 252.803 120.529C252.839 120.218 252.873 119.905 252.861 119.587C252.848 119.203 252.792 118.828 252.711 118.461C253.431 118.204 254.953 117.929 256.172 119.489C255.573 120.521 255.26 121.696 255.304 122.918C255.364 124.628 256.087 126.212 257.337 127.379C258.532 128.492 260.071 129.097 261.695 129.097C261.773 129.097 261.85 129.095 261.928 129.093C263.637 129.033 265.219 128.31 266.384 127.058C267.55 125.805 268.159 124.174 268.098 122.465C268.037 120.755 267.315 119.172 266.063 118.005C264.812 116.838 263.174 116.215 261.474 116.291C259.765 116.352 258.182 117.074 257.017 118.326C256.991 118.354 256.974 118.388 256.948 118.416C255.447 116.746 253.53 116.819 252.313 117.239C251.979 116.503 251.5 115.832 250.891 115.264C249.742 114.194 248.258 113.619 246.705 113.618C247.138 111.195 247.525 109.4 247.642 108.873C247.859 108.635 248.119 108.42 248.372 108.202C251.254 107.989 253.169 106.53 255.092 106.425C257.475 106.294 261.745 109.241 261.745 109.241C261.745 109.241 263.742 108.977 262.727 106.893C261.713 104.808 267.318 109.655 268.466 111.4C271.854 116.552 272.34 122.265 272.4 124.724C272.403 124.817 272.626 124.47 272.962 124.001L273.811 123.49C273.828 123.48 275.472 122.5 277.217 122.699C278.274 122.815 279.783 123.827 280.492 125.469C280.95 126.527 281.208 128.172 279.838 129.997C277.186 133.532 272.255 131.87 272.045 131.796C271.715 131.683 271.346 131.856 271.229 132.19C271.112 132.525 271.288 132.89 271.622 133.007C271.711 133.038 272.538 133.317 273.703 133.454C273.679 133.525 273.661 133.602 273.663 133.683L274.14 153.507C274.149 153.856 274.434 154.133 274.782 154.133H274.798C275.151 154.124 275.432 153.83 275.423 153.475L275.327 149.464C281.433 150.372 292.62 153.403 300.375 163.622C307.591 173.132 314.058 182.226 318.336 188.245C320.782 191.686 322.51 194.114 323.396 195.248C322.432 196.326 321.04 197.516 319.385 198.753C317.827 199.805 312.874 203.101 307.167 206.46C306.669 206.753 306.167 207.044 305.663 207.332C299.741 210.628 294.718 213.094 294.609 213.147L294.127 213.383L294.129 213.386C289.786 215.536 285.159 216.056 283.722 216.169C283.165 214.692 281.223 209.256 278.238 197.86C275.335 186.783 274.654 178.578 274.648 178.496C274.619 178.143 274.322 177.88 273.956 177.908C273.604 177.936 273.34 178.246 273.367 178.599C273.375 178.681 274.063 186.991 276.995 198.186C280.577 211.858 282.615 216.877 282.701 217.084L282.87 217.497L283.316 217.482C283.553 217.474 288.826 217.258 294.072 214.84L295.306 217.532L295.482 218.154L264.536 227.773C264.478 227.791 264.435 227.835 264.385 227.868H256.27L253.045 221.729C252.88 221.416 252.493 221.292 252.179 221.459C251.865 221.624 251.744 222.013 251.91 222.326L254.755 227.744H248.387C248.273 227.729 248.158 227.711 248.044 227.695C246.75 227.52 245.527 227.354 244.369 227.087C240.07 226.095 237.743 226.312 237.041 227.744H199.341L178.945 188.909C178.755 188.547 178.769 188.12 178.979 187.77ZM188.098 175.008C188.045 174.901 187.962 174.81 187.859 174.748C187.792 174.707 181.034 170.524 176.728 164.923C172.252 159.101 172.028 157.787 172.197 156.77C172.257 156.41 172.348 156.252 172.346 156.193C175.546 158.084 178.842 161.508 179.628 162.349C179.087 163.54 178.873 164.356 178.85 164.446C178.766 164.789 178.976 165.138 179.321 165.222C179.371 165.235 179.424 165.241 179.474 165.241C179.762 165.241 180.025 165.045 180.096 164.753C180.1 164.737 180.792 162.509 182.151 160.6C183.916 158.122 186.546 155.757 187.586 155.082C187.882 154.89 187.967 154.492 187.773 154.194C187.581 153.897 187.183 153.811 186.885 154.006C186.52 154.242 186.175 154.488 185.84 154.736C185.817 154.698 185.8 154.658 185.768 154.624C185.768 154.624 184.245 153.046 182.847 151.639C179.593 148.365 176.882 145.854 176.483 145.485C176.386 145.303 176.226 144.9 176.333 144.553C176.415 144.293 176.656 144.073 177.046 143.9C178.246 143.365 184.448 147.681 187.883 150.735C189.278 151.976 190.314 153.071 190.828 153.637C190.215 154.451 189.224 156.329 189.611 159.753C189.935 162.615 192.085 165.33 192.177 165.444C192.304 165.603 192.49 165.685 192.677 165.685C192.818 165.685 192.959 165.639 193.078 165.545C193.355 165.324 193.399 164.919 193.179 164.643C193.159 164.617 191.167 162.097 190.887 159.608C190.437 155.64 192.016 154.19 192.097 154.119C192.104 154.112 192.107 154.103 192.113 154.097C192.131 154.082 192.139 154.063 192.154 154.046C192.212 153.981 192.253 153.908 192.28 153.828C192.284 153.813 192.299 153.803 192.303 153.788C192.737 152.087 194.345 147.438 196.545 146.381C197.002 146.162 197.457 146.112 197.932 146.235C197.854 147.298 197.644 150.079 197.303 154.171C197.205 155.343 197.108 156.299 197.027 157.091C196.733 159.964 196.635 160.932 197.671 162.176C198.755 163.477 203.106 169.133 208.512 176.345C213.81 183.413 215.83 185.237 215.914 185.312C216.159 185.53 216.53 185.527 216.774 185.306L217.473 184.665C217.645 185.05 217.835 185.47 218.046 185.925H193.925C190.668 180.135 188.127 175.066 188.098 175.008ZM170.946 150.236C171.086 149.956 171.25 149.875 171.361 149.837C171.711 149.725 172.164 149.883 172.342 149.966C172.623 150.18 175.307 152.231 177.631 154.751C179.083 156.325 180.8 158.077 181.645 158.932C181.074 159.706 180.614 160.448 180.242 161.128C179.056 159.886 176.005 156.848 172.94 155.052C172.158 154.169 170.273 151.586 170.946 150.236ZM173.605 145.981C174.522 145.459 175.495 146.321 175.534 146.356C175.534 146.356 175.534 146.356 175.535 146.356C175.535 146.356 175.535 146.356 175.535 146.357C175.564 146.383 178.455 149.041 181.937 152.545C183.329 153.945 184.845 155.516 184.846 155.518C184.847 155.519 184.849 155.519 184.85 155.52C183.918 156.305 183.126 157.117 182.45 157.919C181.58 157.039 179.959 155.381 178.576 153.881C176.373 151.493 173.904 149.546 173.231 149.029C173.015 148.238 172.735 146.478 173.605 145.981ZM243.061 116.45C243.156 116.348 243.275 116.283 243.378 116.191H244.967C244.587 118.602 244.231 121.302 244.039 123.968C243.782 123.805 243.535 123.621 243.308 123.409C242.346 122.512 241.79 121.295 241.744 119.981C241.697 118.667 242.165 117.413 243.061 116.45ZM246.484 114.886C246.486 114.886 246.486 114.886 246.487 114.885C246.547 114.883 246.607 114.882 246.667 114.882C247.914 114.882 249.097 115.347 250.016 116.203C250.977 117.101 251.532 118.318 251.579 119.632C251.626 120.946 251.159 122.2 250.262 123.162C249.366 124.125 248.149 124.68 246.836 124.727C246.304 124.746 245.788 124.66 245.29 124.514C245.508 121.206 246.002 117.735 246.484 114.886ZM318.953 114.907H282.995C284.255 110.841 285.106 105.558 283.292 100.955C279.568 91.5126 272.95 91.2622 269.235 91.3045C265.481 91.346 261.756 92.6913 261.756 92.6913C261.756 92.6913 258.588 89.3487 253.804 90.0789C248.507 90.8874 246.966 95.7429 244.024 97.2411C241.081 98.7402 239.269 98.5367 240.356 101.166C241.442 103.795 243.104 107.636 246.129 108.123C246.281 108.146 246.413 108.142 246.56 108.159L246.463 108.272L246.428 108.428C246.38 108.634 245.9 110.759 245.372 113.745C244.455 113.938 243.598 114.333 242.857 114.907H207.174C197.774 114.907 190.127 122.559 190.127 131.965V151.073C189.713 150.67 189.252 150.235 188.735 149.775C188.641 149.692 179.271 141.519 176.53 142.725C175.594 143.137 175.238 143.748 175.105 144.185C175.057 144.341 175.031 144.494 175.02 144.643C174.429 144.468 173.707 144.442 172.968 144.866C171.629 145.632 171.637 147.373 171.814 148.52C171.55 148.504 171.259 148.522 170.971 148.614C170.465 148.778 170.06 149.14 169.799 149.661C168.863 151.536 170.528 154.081 171.48 155.302C171.208 155.587 171.023 156.007 170.932 156.559C170.66 158.191 171.306 159.976 175.711 165.706C179.846 171.085 185.951 175.063 187.032 175.745C187.475 176.623 189.67 180.945 192.453 185.925H179.972C179.109 185.925 178.328 186.367 177.881 187.106C177.435 187.845 177.408 188.742 177.81 189.506L190.127 212.959V226.027C190.127 235.434 197.774 243.085 207.174 243.085H318.953C328.352 243.085 336 235.434 336 226.027V131.965C336 122.559 328.352 114.907 318.953 114.907Z" fill="#393F49"/>
</mask>
<g mask="url(#mask3_5_4694)">
<rect x="-27.9187" y="-48.3599" width="395.293" height="394.805" rx="35.4311" fill="#475574"/>
</g>
<path fill-rule="evenodd" clip-rule="evenodd" d="M15.8834 89.2558C15.8226 89.2208 15.8171 89.1481 15.8963 89.1021C15.8769 89.1638 16.0776 89.08 16.2194 89.0524C16.1245 89.1095 16.0077 89.1803 15.8834 89.2558ZM15.281 89.6764C15.316 89.646 15.3629 89.6009 15.455 89.5374L15.4568 89.5402C15.3795 89.5908 15.3188 89.6423 15.281 89.6764ZM13.8885 89.2356V89.2641C13.8783 89.2282 13.8719 89.1923 13.8802 89.1555C13.986 89.0423 14.0486 89.0386 14.0873 89.0552C14.0348 89.103 13.9722 89.1601 13.8885 89.2356ZM88.8696 36.1614C88.9967 36.1853 88.8981 36.3215 88.7996 36.3288C88.4745 36.3979 88.3879 36.1798 88.3833 36.1144L88.6117 36.1218C88.4634 35.7141 87.7128 35.9838 87.2744 35.9037L87.5056 35.6709L87.0092 35.8144C86.9226 35.7298 86.8756 35.5715 87.1049 35.5687C86.7983 35.3884 86.8056 35.6083 86.5441 35.4353C86.5155 35.4095 86.5321 35.3985 86.5616 35.3911L86.2318 35.4362C86.3018 35.3865 86.1996 35.2439 86.393 35.3028C85.8284 35.0939 85.4462 35.3939 85.2436 35.1924L85.2933 35.1776C84.4847 35.2356 85.2012 35.37 84.5952 35.5761L84.2047 35.0773L84.1227 35.2697C84.0398 35.2559 83.8768 35.2439 83.9072 35.1666C83.5987 35.3111 83.9597 35.2494 83.781 35.3828C83.3804 35.2172 82.6952 35.5016 82.5865 35.1933C82.4539 35.347 82.9733 35.2954 82.557 35.4132C82.4097 35.0755 82.0744 35.5218 81.6996 35.4068C81.7917 35.2218 82.1481 35.2724 81.7659 35.1611C81.5808 35.4795 81.0466 35.174 80.7445 35.277C80.7518 35.3479 80.6837 35.3939 80.5888 35.4335C80.6229 35.3534 80.6754 35.3055 80.7445 35.277C80.7399 35.243 80.7224 35.2052 80.6865 35.1592C80.6026 35.1684 80.6036 35.3497 80.5861 35.4344C80.3659 35.5246 79.9524 35.5669 79.6107 35.693C79.6199 35.5853 78.6335 35.7997 78.1472 35.8881L78.1482 35.8466C78.1344 36.1071 77.6379 36.1917 77.3229 36.3813C77.2861 36.2488 77.3193 36.154 77.4878 36.0371C77.3764 36.0675 77.2741 36.1209 77.1682 36.1669C77.1212 36.2699 77.0384 36.35 76.8459 36.465L76.8569 36.2681C76.4406 36.4742 76.0897 36.8129 75.5187 36.9859C75.5712 37.146 76.1238 37.157 75.6569 37.5629C75.5951 37.4957 75.5021 37.3751 75.6228 37.261C75.5832 37.2978 75.4975 37.4212 75.3888 37.4414L75.5279 37.1856C75.2682 37.2629 75.468 37.3659 75.2802 37.4607C75.2221 37.3485 75.1006 37.4626 75.0766 37.3595C75.1171 37.3208 75.2627 37.3107 75.3078 37.2251C75.0904 37.3282 74.8022 37.4129 74.6686 37.3807C74.7239 37.4313 74.7561 37.527 74.6143 37.63C74.2265 37.8721 74.3978 37.5813 74.1317 37.665C74.0801 37.7892 73.7854 37.8767 73.8922 38.0441C73.7863 38.1251 73.7154 38.0681 73.6445 38.058C73.5045 38.2714 72.7805 38.7564 73.1167 38.7509L73.172 38.7242L73.1471 38.7546C72.635 39.338 71.8651 39.7098 71.3788 40.3125L71.3346 40.2683C71.0564 40.6364 70.6466 41.0156 70.5462 41.3533C70.4578 41.4527 70.2524 41.5153 70.233 41.4223C70.0442 41.7149 70.0709 41.7876 69.6703 42.1024C69.8094 41.7656 69.5183 42.1309 69.8379 41.7784C69.5082 42.0858 69.3609 42.0978 69.1886 42.58C69.1684 42.3499 68.8147 42.7097 68.7189 42.9076L69.0072 42.7373C68.8746 42.9379 68.7309 43.0916 68.5863 43.248L68.4923 43.0244C67.7095 43.5812 67.8108 44.5943 67.0427 44.8824C67.0132 45.1658 67.4286 44.5511 67.436 44.8299C67.156 45.1456 66.6457 45.3103 66.5665 45.4161C66.1235 45.8072 66.4919 46.0345 66.0673 46.4707C66.1742 46.4532 66.3805 46.5167 66.1714 46.9207C65.8997 47.2428 65.6078 47.1498 65.7146 46.8986C65.7699 46.813 65.8177 46.7882 65.8362 46.8066C65.8942 46.6805 65.9752 46.5176 65.8095 46.6032L65.838 46.6925C65.651 46.8148 65.3149 47.2878 65.2946 47.1047C65.1657 47.4047 65.3158 47.2878 65.4862 47.1204C65.0791 47.4931 64.987 47.8023 64.6029 48.2108C64.6886 48.163 64.8092 48.1492 64.7567 48.22C64.2041 48.8255 64.6646 48.5927 64.3672 49.0556C64.0881 49.2369 64.2087 48.8025 63.961 49.3022C63.6985 49.5249 63.7565 49.2378 63.7851 49.0943C63.6055 49.5829 63.1579 49.7881 62.9562 49.9878L63.0695 49.7458C63.0013 49.8903 62.9212 49.9906 62.8392 50.0918L63.0529 50.0688C62.9359 50.1728 62.8549 50.274 62.807 50.2326C62.7858 50.4185 63.0824 50.2942 62.9921 50.6255C62.8033 50.7387 62.6651 51.1703 62.4644 51.0976C62.9203 50.6347 62.2627 51.0258 62.5767 50.5777C62.5298 50.6752 62.4496 50.7755 62.3327 50.8786C62.3004 50.8823 62.3142 50.8353 62.3308 50.7948C61.8086 51.162 62.3308 51.1602 61.9136 51.646C61.8786 51.5108 61.652 51.6184 61.6032 51.7132C61.7718 51.52 61.8279 51.7427 61.7395 51.9801C61.4052 52.2332 61.4982 52.362 61.3499 52.5193L61.5415 52.3601C61.5719 52.4991 61.4292 52.6473 61.2569 52.8801C61.174 52.8377 61.3896 52.6473 61.2901 52.696C61.2201 53.065 60.6472 53.0834 60.4446 53.4994C60.2484 53.596 60.2761 53.366 60.1167 53.4607C59.8717 53.9126 59.6267 53.7248 59.3458 54.1748C59.5577 54.1804 59.5521 54.1334 59.3947 54.4988L59.9279 53.8215L59.6931 54.3653C59.88 54.185 60.0145 53.9135 60.1434 53.8233C60.0458 54.0948 60.0366 54.0497 60.2162 54.0515C59.8008 54.138 59.8063 54.6432 59.4048 54.8227L59.1534 54.5374C58.5805 54.8126 58.4921 55.4282 57.8068 55.8515L58.0472 55.7411C58.061 55.9242 57.6788 56.0677 57.5176 56.2785C57.4578 56.1644 57.304 56.2297 57.1713 56.2362C57.2423 56.307 56.7026 56.5702 56.7937 56.8177L56.4106 56.8923C55.8561 57.2042 56.0063 57.5944 55.4638 57.9036C55.5476 57.6855 55.2667 57.761 55.5577 57.4536C55.3855 57.564 55.2216 57.6459 55.263 57.7196C55.1203 57.7094 54.8559 58.1475 54.6321 58.1364C54.5842 58.2266 54.6248 58.361 54.4148 58.4613C54.3807 58.4493 54.3871 58.406 54.3871 58.406C54.4157 58.4613 54.1007 58.6407 54.3466 58.6766C53.6098 58.6113 52.7339 59.4634 52.0865 59.2885C51.684 59.4818 51.1701 59.6355 50.7796 59.7367C50.7971 59.6953 50.7676 59.675 50.845 59.675C50.2804 59.6474 50.5742 60.103 49.9166 60.0597C49.5694 59.8867 50.2389 59.918 50.0271 59.86C49.8843 59.4542 49.3032 59.9879 48.8123 59.7864L48.9201 59.7514C48.5636 59.6419 48.0948 59.9842 47.5367 60.0054C47.5367 60.0054 47.5597 59.9668 47.5321 59.9428C47.1748 60.195 46.4776 60.402 45.9627 60.5437C46.0935 60.356 46.1856 60.4186 46.053 60.2732C45.82 60.3395 46.1718 60.5152 45.714 60.6551C45.5446 60.6072 45.1909 60.6183 45.1006 60.4591L45.5437 60.3339C45.2627 60.171 44.9671 60.4922 44.724 60.5143L44.7276 60.4103C44.0452 60.6118 44.1235 60.8897 43.4078 61.1226L43.5082 61.1667C43.2209 61.5468 43.1232 61.1354 42.8285 61.4916L42.6112 61.3158C42.3855 61.4953 41.8477 61.9425 41.4802 62.2655C41.6027 61.9443 42.0604 61.5735 42.345 61.3315C42.0899 61.4373 41.5143 61.7741 41.4682 61.9747C41.5483 61.8946 41.6358 61.7658 41.7482 61.741C41.5677 62.1054 41.2361 62.3842 40.8152 62.7136C40.7047 62.4873 40.4063 62.6879 40.0664 62.9419C39.7432 63.217 39.4116 63.5704 39.1224 63.5906C38.626 64.4676 37.8763 65.1605 37.4674 66.2722C37.9702 66.0311 37.355 66.5924 37.7501 66.6596C37.6783 66.8979 37.658 66.9909 37.6248 67.0111C37.623 67.0139 37.6212 67.0166 37.6184 67.0203L37.6202 67.0212C37.472 67.2485 37.3099 67.4795 37.18 67.7215C37.0253 67.8798 37.1542 67.4556 37.063 67.4565C36.8991 68.0197 36.8457 67.6553 36.6532 68.0169C36.8052 67.9691 36.8088 68.258 36.6983 68.5746L36.9599 68.1504C37.0216 68.9767 36.5058 68.7844 36.6062 69.6126L36.5141 69.3448C36.5298 69.7736 36.3465 70.8374 36.6237 71.2534C36.5712 71.3178 36.4542 71.3988 36.4441 71.223C36.306 72.1561 36.5491 73.3432 36.236 74.0297L36.1522 73.945C36.1512 74.1199 36.2848 74.2736 36.1512 74.4705C36.1144 74.4521 36.0693 74.3849 36.0499 74.4622C36.0656 74.557 36.1291 74.9435 36.0315 75.1579L35.9624 74.9453C35.6659 75.7965 35.9247 76.3468 35.7709 77.0977C35.4927 77.0122 35.2137 77.6563 35.0331 77.9508L34.9991 77.925C34.6095 78.8554 34.5349 79.5971 34.1038 80.4529C33.8257 80.6222 33.4987 80.9783 33.1515 81.3731C32.7758 81.7615 32.3631 82.1664 31.9625 82.3798C32.1025 82.3375 32.085 82.5639 31.9699 82.6826C31.7709 82.7663 31.5969 83.1924 31.4817 82.9476L31.548 82.9136C31.2745 82.7783 30.966 83.0544 30.6556 83.1712L30.7412 83.5053C29.7917 83.4188 28.4323 84.3298 27.8051 84.0059C27.5877 84.1329 27.2995 84.1844 27.0839 84.3105L27.0628 84.1301C26.4024 84.2074 26.0727 84.2461 25.2723 84.4577L25.4105 84.2967C24.95 84.3777 24.9463 84.9326 24.5346 85.0375L24.3476 84.8019C23.5611 84.9915 22.6972 84.9611 21.9954 85.4258C21.9972 85.3844 21.9991 85.3025 22.1225 85.2556C21.7532 85.3513 20.647 85.4939 20.8929 85.8151C20.8119 85.5859 20.0889 86.0479 19.7094 86.2816L19.7177 86.0911C19.4377 86.416 19.4479 86.4997 18.9855 86.7417C18.8953 86.7592 18.8566 86.6994 18.9109 86.6598C18.6356 86.7417 18.7148 86.9147 18.2672 86.9976L18.397 86.8246C17.9964 86.9699 18.048 87.0049 17.8923 87.2239C17.6869 87.4089 17.161 87.5433 17.0302 87.4291C17.0229 87.5423 16.8783 87.7632 16.6351 87.835C16.5753 87.7963 16.6388 87.7218 16.6701 87.685C15.9702 87.8939 15.8762 88.4064 15.3651 88.5012C15.3236 88.457 15.2813 88.4497 15.2361 88.4561C15.7169 88.158 16.1074 87.9242 16.0779 87.9583C15.9969 87.8147 15.5889 88.0374 15.785 87.6454C15.5281 87.9528 15.1431 88.515 14.724 88.6889C14.6973 88.6889 14.6715 88.6889 14.6439 88.6788L14.6706 88.6356C14.5785 88.6843 14.5141 88.7543 14.4606 88.8297C14.3317 88.8941 14.247 88.9337 14.1364 89.0165C14.0121 88.9392 13.6713 89.2816 13.4844 89.4168C13.6133 89.5457 13.3582 89.7049 13.675 89.6497C13.6382 89.6616 13.6953 89.6064 13.8104 89.5079C13.8344 89.484 13.8647 89.4564 13.8758 89.4343L13.873 89.4564C13.99 89.3625 14.142 89.2402 14.3142 89.1021C14.2267 89.2852 14.1272 89.4592 13.8657 89.5337C13.8463 89.6957 13.8205 89.865 13.8003 89.9515C13.3886 89.9312 12.8765 90.2644 12.7024 90.2009C12.2373 90.7309 11.5705 91.4147 11.5475 91.9696C11.4508 92.1435 11.3237 92.0745 11.2344 92.0956C11.2832 91.9889 11.378 91.8904 11.3817 91.8122C11.1671 92.1499 10.6615 92.7389 10.8033 92.9616C10.4266 93.2974 10.7923 92.6063 10.422 93.1806L10.4174 93.0637C9.84548 93.4888 9.69719 94.064 9.5351 94.618C9.34721 95.1646 9.24314 95.7397 8.71356 96.3204C8.78356 96.2385 8.81763 96.1962 8.86276 96.1934C8.0007 97.6943 7.92334 99.5347 7.56691 101.185C7.45363 101.663 7.65717 101.719 7.77229 102.005L7.58349 102.115L7.83308 102.599C7.99702 103.268 7.55125 103.877 7.9961 104.709L8.10109 104.565C8.1407 104.885 8.48055 105.503 8.31292 105.501C8.34608 105.525 8.47502 105.558 8.44923 105.698L8.35713 105.741C8.50173 105.968 8.61317 106.205 8.78448 106.415C8.98249 106.991 8.37003 106.485 8.74948 107.309C8.9346 107.6 9.42918 108.028 9.43287 107.879C9.37853 107.758 9.33892 107.545 9.42458 107.488L9.60049 107.729C9.88692 107.635 10.2415 107.666 10.1273 106.953L9.7543 106.605L9.81785 106.405L10.002 106.76C10.0251 106.497 9.85469 106.423 9.7064 106.31C9.76074 106.244 9.78101 106.163 9.76535 106.067C9.60141 105.969 9.46602 105.857 9.32971 105.739C9.42181 105.645 9.61154 105.854 9.5747 105.536C9.38221 105.374 9.39603 105.828 9.19893 105.51C9.25419 105.245 9.38129 105.277 9.18696 105.057C9.24774 104.998 9.31314 105.038 9.37853 105.127C9.21735 104.93 9.13999 104.546 8.95302 104.467C9.07367 104.194 8.76329 103.679 9.04512 103.651C8.965 103.592 8.74856 103.278 8.69606 103.061C9.06723 103.416 8.64633 102.243 9.03131 102.321C8.70251 102.048 8.82961 101.278 8.73659 100.749C8.75869 100.781 8.8029 100.841 8.78356 100.886C8.83145 100.594 8.92908 100.518 8.99999 100.338C8.74211 100.274 8.7329 99.8081 8.64725 99.5348C8.95855 99.2191 8.895 99.8025 9.14828 99.7262C8.94289 99.7133 9.07091 99.0802 8.88026 99.1657C9.08104 98.9237 8.99815 98.9449 9.22932 98.8538C8.93921 98.7332 9.20998 98.5869 9.10775 98.321C9.38129 97.9786 9.42181 98.3044 9.46694 97.8599C9.62259 97.6934 9.6097 98.0937 9.6097 98.0937C9.74969 97.6777 9.45221 97.825 9.35182 97.6925C9.45497 97.1578 9.59404 97.5139 9.76259 97.3833C9.79298 97.0455 9.73311 96.7409 9.83442 96.5109C9.87771 96.509 9.91087 96.4704 9.93297 96.5422C9.90442 96.1382 10.3456 95.5787 10.3741 95.1158C10.4082 95.0992 10.4331 95.0956 10.4533 95.0974C10.3152 95.0974 10.2047 95.0477 10.1365 94.9925C10.2387 94.8121 10.2037 94.5821 10.3769 94.594C10.3078 94.7017 10.3566 94.7431 10.3677 94.8186L10.4202 94.5968C10.7085 94.5444 10.3364 94.8922 10.4791 94.975C10.6256 94.5793 10.7131 94.0465 10.9737 93.8284C11.1892 93.8956 10.5952 94.4818 11.0041 94.2398C10.8825 94.3557 10.7877 94.491 10.6771 94.617C11.1588 94.4735 10.5068 94.8618 10.9921 94.7578C11.3605 94.2388 11.3071 94.1063 11.7225 93.6158C11.7114 93.4263 11.5512 93.5477 11.5401 93.3563C11.9196 92.4637 12.428 93.1465 12.6361 92.4435C12.6453 92.2189 12.4851 91.9714 12.9226 91.7156L12.9861 92.0064C13.4466 91.5849 12.9962 91.5058 13.594 91.1708C13.5737 91.3226 13.2864 91.5683 13.3766 91.5242C13.8224 91.3751 13.5019 91.2168 13.745 90.9904L13.9403 91.1073C14.398 90.6205 14.9156 90.0766 15.4885 89.588C15.4894 89.6635 15.4212 89.7868 15.6064 89.749C15.972 89.4555 16.4012 89.1932 16.8368 88.9595C17.29 88.7552 17.7634 88.6024 18.187 88.4552L18.4164 88.1313C18.4928 88.1046 18.5895 88.1552 18.5232 88.2205C18.8778 88.1589 18.4928 88.1046 18.6208 87.9748C18.8032 87.8893 18.9091 87.9785 18.8133 88.0761C19.0693 87.8911 19.4525 87.6491 19.8577 87.4457C20.2759 87.2589 20.7253 87.1264 21.0744 87.1181L20.9666 87.211C21.4861 87.1245 21.4161 86.6589 21.9355 86.6939L21.8554 86.7519C22.967 86.5052 24.1469 86.0258 25.0568 86.1169C25.1581 85.8086 26.1814 86.0019 26.1777 85.6154C26.8546 85.6715 26.6815 85.7764 27.6108 85.7286C27.8576 85.701 27.9294 85.4295 28.2241 85.3347L28.2684 85.527L28.6432 85.2427L28.9094 85.4322L29.1884 85.3209C29.0696 85.3356 28.925 85.2878 28.9315 85.228C29.3588 85.0504 30.0643 85.1074 30.1094 85.1911C30.4594 85.0467 30.8103 84.8562 31.1465 84.6666C31.1548 84.7559 30.9826 84.8451 30.8527 84.9445C31.3648 84.5424 31.0415 85.1065 31.5038 84.7016C31.4136 84.6933 31.4928 84.5774 31.4863 84.5359C31.7986 84.5359 32.3945 84.1991 32.7389 83.8623L32.7444 84.0271C33.4969 83.5274 34.0891 82.8068 34.6878 82.0642C34.4207 82.2906 34.2936 82.0725 34.4474 81.8489L34.6804 81.894C34.6905 81.6759 34.4372 82.067 34.5422 81.6869C34.7799 81.4338 34.8812 81.6455 34.8056 81.848C34.8793 81.7219 34.9493 81.5949 35.0055 81.4596C35.0709 81.4753 35.0405 81.5774 35.0902 81.6464C35.0783 81.4265 35.6944 81.1403 35.6318 80.798L35.6972 80.809C36.1733 79.9808 36.2875 79.5584 36.5666 78.8526C36.4045 78.7716 36.5482 78.5103 36.492 78.2526C36.7278 77.7594 37.0492 77.2174 37.1984 76.5732C37.227 76.1039 37.0842 76.4057 37.028 76.1793C37.1957 76.1858 37.3246 75.5435 37.3651 75.9005C37.507 75.1266 37.5429 74.9076 37.565 73.9156C37.4812 74.0113 37.4333 74.1245 37.3872 74.0545C37.3891 73.8751 37.5189 73.6653 37.5917 73.7021L37.6027 73.7509C37.5199 72.6346 38.3727 71.2837 38.1203 70.4012L38.1323 70.45L38.054 69.5601C38.1378 69.1681 38.1434 69.8132 38.2852 69.5344C38.148 68.5681 38.5551 68.1135 38.602 67.3654C39.1961 66.9807 39.3305 65.4835 40.0784 65.0694L39.9605 65.0345C39.99 64.8136 40.1558 64.89 40.2608 64.797C40.1806 64.7556 40.0535 64.8964 40.0784 64.763C41.0169 63.3532 42.8055 62.6621 44.443 62.2268C45.0417 62.0446 44.6199 61.556 45.4829 61.5992L45.3116 61.8633C46.5089 61.2578 47.9438 61.3784 49.2203 61.0581C49.1457 61.1134 49.1475 61.1778 49.0204 61.1888C49.271 61.3213 50.1358 61.0922 50.1072 60.968C50.332 60.9569 50.1735 61.0747 50.32 61.118C50.6405 61.152 51.0448 60.7996 51.2309 60.9072C51.2631 60.9238 51.159 60.9799 51.1056 60.9993C51.2852 60.8842 52.0128 60.7922 51.7825 60.6689C52.3269 60.6137 52.7349 60.2934 53.1677 60.2465C53.3473 59.9548 54.0519 59.9944 54.0114 59.6916C54.0924 59.9677 54.9582 59.5076 55.1728 59.214C55.1175 59.3456 55.4675 59.1496 55.4141 59.3208C55.7447 59.1275 56.021 58.9076 55.8856 58.8128C56.6639 58.73 56.9052 57.8291 57.4661 57.9533C58.2922 57.1757 58.9968 56.423 59.6848 55.7061C59.8533 55.9435 58.889 56.4634 59.1165 56.6631C59.7511 55.9371 59.9878 55.3997 60.6914 54.7877C60.8913 54.646 60.6822 54.9727 60.6583 55.0656C61.2542 54.3285 61.9449 53.7718 62.3852 53.0448C62.4045 53.065 62.3677 53.1525 62.329 53.2325C62.4284 53.1009 62.6099 52.9693 62.4984 52.8976L62.4211 53.042C62.1079 53.1138 62.5445 52.2865 62.4846 52.2009C62.5915 52.6555 63.0897 51.6414 63.1689 52.2819C63.2196 52.1835 63.2601 52.0408 63.1763 52.0031C63.2979 51.8964 63.3679 51.8881 63.3448 52.0795C63.6561 51.5734 63.4167 51.6488 63.7492 51.2356C63.798 51.2761 63.751 51.3755 63.775 51.4657C63.8459 51.1767 63.9159 50.8896 64.2373 50.5712C64.2511 50.6163 64.323 50.6062 64.2391 50.7102C64.6895 50.0826 64.7586 49.4605 65.3517 48.855C65.4337 49.2157 65.5912 48.6765 65.8113 48.7805L66.0158 48.3756L65.8159 48.4538C66.0489 48.1372 66.1125 47.7535 66.375 47.5271L66.2829 47.8207L66.6807 47.2004L66.3611 47.482C66.4975 47.0891 66.0904 47.3375 66.4551 46.9556C66.4118 47.0559 66.6918 46.6391 66.9276 46.5599V46.5618C66.9828 46.3603 67.0381 46.1514 67.261 45.9544C67.3678 45.9406 67.4369 46.1624 67.5069 46.1541C67.4617 45.8799 68.018 45.3885 67.9978 45.0664C67.9886 45.1612 68.0853 45.2413 68.1221 45.2367L68.0917 45.0094C68.2446 44.898 68.2805 44.8925 68.3422 44.9772C68.7014 44.564 67.9941 44.9265 68.4979 44.4959C68.4767 44.5446 68.5108 44.54 68.4647 44.6385C68.9197 44.1674 69.1674 43.5876 69.6095 43.1735C69.907 43.1891 69.324 43.6152 69.6095 43.5876C70.1179 42.8938 70.5268 42.0287 71.1237 41.4416L71.0012 41.5401C70.817 41.2199 71.5427 41.1923 71.7232 40.7993C71.6698 40.8886 71.7656 41.0229 71.7582 40.9778C72.2095 40.6392 72.4757 40.076 73.0817 39.465L73.0541 39.5966C73.3663 39.4539 73.7725 39.0987 74.0782 38.9119C74.1105 38.7767 74.2809 38.6625 74.1086 38.6349C74.687 38.4941 75.1217 38.2218 75.515 37.8785C75.9028 37.5297 76.3329 37.2537 76.8671 37.2463C76.7602 37.2951 76.6451 37.4294 76.7298 37.3926L77.4565 36.9804C77.3414 36.8699 77.3229 36.9417 77.1176 36.9067C77.1811 36.7834 77.3745 36.6206 77.5689 36.5368C77.2557 36.7853 77.6536 36.7448 77.8396 36.7862C77.7982 36.7521 77.8341 36.6877 77.8046 36.6491C78.3112 36.765 77.7761 36.3454 78.4107 36.3298L78.4042 36.4135C78.6068 36.3077 78.7763 36.1457 79.0167 36.0923C79.1585 36.2276 78.8085 36.2423 78.8334 36.3822C79.1475 36.2589 79.3952 35.8742 79.7424 35.9856C79.6107 36.062 79.4072 36.1052 79.2773 36.1807C79.6549 36.3068 79.6789 36.2497 79.9285 36.2304L79.9036 36.2313L80.4792 36.2037L80.3273 36.1798C80.6579 35.6387 81.1562 35.9331 81.6913 35.5881C81.1672 35.9276 81.6194 35.7574 81.5992 35.9561C81.7502 35.993 81.974 36.027 81.9178 36.0887C82.1702 35.9111 82.3664 36.1411 82.7283 35.9083C82.7486 35.97 83.0157 35.9046 82.9623 36.0638C83.3067 36.0031 82.8757 35.958 82.9006 35.8789C83.4375 35.6396 84.1614 36.0887 84.9415 35.8466C85.6184 35.7417 85.7603 35.5816 86.4041 35.5319C86.6039 35.6534 86.2042 35.7399 86.2042 35.7399C86.5339 35.8623 86.7881 35.8779 87.1169 35.8632C87.0442 35.9074 87.104 35.9635 87.1888 36.0491C87.4439 36.0739 87.396 35.8512 87.7165 35.9966C87.6456 36.0555 87.5526 36.154 87.419 36.2037C87.7266 36.189 88.0407 36.1374 88.3603 36.1494C88.4183 36.2736 88.1402 36.2718 88.0195 36.3187C88.3713 36.3426 88.9285 36.4098 89.0741 36.2782L88.8696 36.1614Z" fill="white"/>
</svg>
