<svg width="64" height="64" viewBox="0 0 64 64" fill="none" xmlns="http://www.w3.org/2000/svg">
<circle cx="32" cy="32" r="32" fill="#FFCB57"/>
<path fill-rule="evenodd" clip-rule="evenodd" d="M26.5204 20H37.4785C41.6258 20 45 23.4931 45 27.788V37.212C45 41.5069 41.6258 45 37.4785 45C37.0001 45 36.6118 44.5979 36.6118 44.1025C36.6118 43.6071 37.0001 43.205 37.4785 43.205C40.6701 43.205 43.2667 40.5172 43.2667 37.212V29.6908H38.998C37.5964 29.692 36.4535 30.8743 36.4524 32.3271C36.4535 33.7799 37.5964 34.9622 38.998 34.9634H40.7718C41.2502 34.9634 41.6385 35.3655 41.6385 35.8609C41.6385 36.3563 41.2502 36.7584 40.7718 36.7584H38.998C36.6396 36.7572 34.7202 34.7695 34.719 32.3271C34.7202 29.8846 36.6396 27.8969 38.998 27.8957H43.2667V27.788C43.2667 24.4828 40.6701 21.795 37.4785 21.795H26.5204C23.9481 21.795 21.7895 23.5518 21.0372 25.9583H32.4611C32.9395 25.9583 33.3277 26.3604 33.3277 26.8558C33.3277 27.3524 32.9395 27.7533 32.4611 27.7533H20.7368C20.7368 27.7593 20.7359 27.765 20.7351 27.7707C20.7342 27.7764 20.7333 27.7821 20.7333 27.788V37.212C20.7333 40.5172 23.3287 43.205 26.5204 43.205H32.0335C32.5119 43.205 32.9002 43.6071 32.9002 44.1025C32.9002 44.5979 32.5119 45 32.0335 45H26.5204C22.3731 45 19 41.5069 19 37.212V27.788C19 23.4931 22.3731 20 26.5204 20ZM38.3193 32.2462C38.3193 31.7508 38.7075 31.3487 39.1859 31.3487H39.58C40.0584 31.3487 40.4466 31.7508 40.4466 32.2462C40.4466 32.7416 40.0584 33.1437 39.58 33.1437H39.1859C38.7075 33.1437 38.3193 32.7416 38.3193 32.2462Z" fill="#161616"/>
</svg>
