<svg width="64" height="64" viewBox="0 0 64 64" fill="none" xmlns="http://www.w3.org/2000/svg">
<circle cx="32" cy="32" r="32" fill="#52C3FF"/>
<path fill-rule="evenodd" clip-rule="evenodd" d="M42.1274 31.0412C42.6528 31.8317 42.9542 32.7476 43 33.693L42.9656 33.932C43.0051 35.2259 42.5731 36.4906 41.7485 37.4943C40.6955 38.63 39.256 39.3394 37.7071 39.486C33.8916 39.9047 30.0411 39.9047 26.2256 39.486C24.6993 39.3294 23.2849 38.6202 22.2531 37.4943C21.4149 36.505 20.9699 35.2464 21.0016 33.9548V33.7955C21.0647 32.8217 21.3898 31.8825 21.9431 31.0754L22.0349 30.9616C22.6103 30.3144 23.006 29.5299 23.1831 28.6853V27.7066V26.3408C23.3459 25.9297 23.7663 25.6775 24.2093 25.7254C24.6522 25.7733 25.0079 26.1094 25.0775 26.5457V27.6838V28.8902C25.082 28.9318 25.082 28.9738 25.0775 29.0154C24.8384 30.1895 24.292 31.2807 23.4931 32.1793C23.1854 32.6652 23.0112 33.2223 22.9879 33.7955V34.0459C22.9624 34.852 23.2315 35.6401 23.7456 36.2652C24.4585 36.995 25.4117 37.4473 26.4323 37.5399C30.1261 37.9382 33.8525 37.9382 37.5463 37.5399C38.5948 37.4445 39.5713 36.9706 40.2904 36.2083C40.7793 35.598 41.0354 34.8363 41.0137 34.0572V33.7955C40.9902 33.2204 40.8203 32.6605 40.52 32.168C39.6878 31.2795 39.1092 30.1875 38.8437 29.004C38.8393 28.9624 38.8393 28.9204 38.8437 28.8788V27.661V26.5229C38.5108 23.0858 35.0549 20.9576 32.0467 20.9576C30.7678 20.9546 29.51 21.2801 28.3956 21.9022C28.0871 22.0861 27.702 22.0889 27.3908 21.9096C27.0795 21.7302 26.8914 21.3972 26.8998 21.0404C26.9082 20.6837 27.1118 20.3597 27.4312 20.195C28.812 19.4218 30.369 19.0105 31.9549 19C35.9274 19 40.3822 21.7998 40.8874 26.2953V27.6383V28.6398C41.0599 29.486 41.4561 30.2716 42.0356 30.916C42.0699 30.955 42.1006 30.9969 42.1274 31.0412ZM32.3866 42.96C33.0711 42.8591 33.6863 42.494 34.0956 41.9459H34.1072C34.461 41.5258 35.0947 41.4669 35.5225 41.8143C35.9503 42.1618 36.0103 42.784 35.6564 43.2041C34.7842 44.3242 33.4347 44.9868 31.9989 45C30.5672 44.9833 29.2227 44.3211 28.353 43.2041C27.9992 42.784 28.0591 42.1618 28.487 41.8143C28.9148 41.4669 29.5484 41.5258 29.9022 41.9459C30.0576 42.1499 30.242 42.3309 30.4497 42.4835C31.0049 42.8894 31.7021 43.0609 32.3866 42.96Z" fill="white"/>
</svg>
